<?xml version="1.0" encoding="UTF-8" standalone="no"?>
<svg
   xmlns:dc="http://purl.org/dc/elements/1.1/"
   xmlns:cc="http://web.resource.org/cc/"
   xmlns:rdf="http://www.w3.org/1999/02/22-rdf-syntax-ns#"
   xmlns:svg="http://www.w3.org/2000/svg"
   xmlns="http://www.w3.org/2000/svg"
   xmlns:sodipodi="http://sodipodi.sourceforge.net/DTD/sodipodi-0.dtd"
   xmlns:inkscape="http://www.inkscape.org/namespaces/inkscape"
   width="595pt"
   height="842pt"
   id="svg21682"
   sodipodi:version="0.32"
   inkscape:version="0.44"
   sodipodi:docname="robotux-main.svg"
   sodipodi:docbase="/home/akkana/Images/Notmine/linuxchix">
  <metadata
     id="metadata22687">
    <rdf:RDF>
      <cc:Work
         rdf:about="">
        <dc:format>image/svg+xml</dc:format>
        <dc:type
           rdf:resource="http://purl.org/dc/dcmitype/StillImage" />
      </cc:Work>
    </rdf:RDF>
  </metadata>
  <defs
     id="defs22685" />
  <sodipodi:namedview
     inkscape:window-height="778"
     inkscape:window-width="988"
     inkscape:pageshadow="2"
     inkscape:pageopacity="0.0"
     guidetolerance="10.0"
     gridtolerance="10.0"
     objecttolerance="10.0"
     borderopacity="1.0"
     bordercolor="#666666"
     pagecolor="#ffffff"
     id="base"
     inkscape:zoom="0.50925125"
     inkscape:cx="371.875"
     inkscape:cy="488.94001"
     inkscape:window-x="0"
     inkscape:window-y="30"
     inkscape:current-layer="svg21682" />
  <g
     id="g3190"
     transform="matrix(2.16598,0,0,2.030945,-513.2293,-691.6459)">
    <g
       id="g2464"
       style="fill:#aeb5df;fill-rule:evenodd;stroke:none;stroke-width:1pt;stroke-linecap:butt;stroke-linejoin:miter;stroke-dasharray:none"
       transform="matrix(1.290432,0,0,1.290432,352.3354,348.9732)">
      <path
         id="path2466"
         d="M 0,2.723 C 0,2.723 0.34,6.684 3.739,6.684 C 3.739,6.684 4.078,5.098 4.078,5.098 C 4.078,5.098 1.59,3.172 3.739,0 C 3.739,0 0,0.454 0,2.723 z " />
    </g>
    <g
       id="g2468"
       style="fill:#aeb5df;fill-rule:evenodd;stroke:none;stroke-width:1pt;stroke-linecap:butt;stroke-linejoin:miter;stroke-dasharray:none"
       transform="matrix(1.290432,0,0,1.290432,367.7754,349.412)">
      <path
         id="path2470"
         d="M 0.949,1.02 C 0.949,1.02 0,2.907 0.914,4.117 C 0.914,4.117 3.102,6.344 3.102,6.344 C 3.102,6.344 3.781,3.625 3.781,3.625 C 3.781,3.625 4.008,0.114 4.008,0.114 C 4.008,0.114 1.516,0 0.949,1.02 z " />
    </g>
    <g
       id="g2472"
       style="fill:#e66d3d;fill-rule:evenodd;stroke:none;stroke-width:1pt;stroke-linecap:butt;stroke-linejoin:miter;stroke-dasharray:none"
       transform="matrix(1.290432,0,0,1.290432,356.137,348.2429)">
      <path
         id="path2474"
         d="M 5.554,2.152 C 5.554,1.961 5.593,1.727 5.64,1.469 C 5.101,0.59 4.152,0 3.058,0 C 1.371,0 0,1.398 0,3.117 C 0,4.773 1.277,6.117 2.875,6.215 C 4.058,5.32 4.996,4.008 5.554,2.152 z " />
    </g>
    <g
       id="g2476"
       style="fill:#ec9b7d;fill-rule:evenodd;stroke:none;stroke-width:1pt;stroke-linecap:butt;stroke-linejoin:miter;stroke-dasharray:none"
       transform="matrix(1.290432,0,0,1.290432,359.847,350.1385)">
      <path
         id="path2478"
         d="M 2.765,0 C 2.718,0.258 2.679,0.492 2.679,0.683 C 2.121,2.539 1.183,3.851 0,4.746 C 0.062,4.75 0.121,4.765 0.183,4.765 C 1.871,4.765 3.242,3.367 3.242,1.648 C 3.242,1.039 3.058,0.476 2.765,0 z " />
    </g>
    <g
       id="g2480"
       style="fill:#e66d3d;fill-rule:evenodd;stroke:none;stroke-width:1pt;stroke-linecap:butt;stroke-linejoin:miter;stroke-dasharray:none"
       transform="matrix(1.290432,0,0,1.290432,372.4081,348.7977)">
      <path
         id="path2482"
         d="M 3.781,0.933 C 3.246,0.328 2.566,0 1.895,0.133 C 0.695,0.371 0,1.957 0.344,3.675 C 0.59,4.922 1.32,5.89 2.156,6.238 C 3.379,4.738 4.012,2.933 3.781,0.933 z " />
    </g>
    <g
       id="g2484"
       style="fill:#ec9b7d;fill-rule:evenodd;stroke:none;stroke-width:1pt;stroke-linecap:butt;stroke-linejoin:miter;stroke-dasharray:none"
       transform="matrix(1.290432,0,0,1.290432,375.1902,350.0017)">
      <path
         id="path2486"
         d="M 2.528,1.879 C 2.379,1.121 2.043,0.477 1.625,0 C 1.856,2 1.223,3.805 0,5.305 C 0.317,5.434 0.649,5.485 0.977,5.422 C 2.172,5.184 2.867,3.598 2.528,1.879 z " />
    </g>
    <g
       id="g2488"
       style="fill:white;fill-rule:evenodd;stroke:none;stroke-width:1pt;stroke-linecap:butt;stroke-linejoin:miter;stroke-dasharray:none"
       transform="matrix(1.290432,0,0,1.290432,357.2248,349.7501)">
      <path
         id="path2490"
         d="M 1.016,1.094 C 0.739,1.508 0.364,1.746 0.184,1.625 C 0,1.504 0.079,1.066 0.36,0.652 C 0.637,0.234 1.012,0 1.192,0.121 C 1.375,0.242 1.297,0.676 1.016,1.094 z " />
    </g>
    <g
       id="g2492"
       style="fill:white;fill-rule:evenodd;stroke:none;stroke-width:1pt;stroke-linecap:butt;stroke-linejoin:miter;stroke-dasharray:none"
       transform="matrix(1.290432,0,0,1.290432,373.603,349.7952)">
      <path
         id="path2494"
         d="M 0.629,0.82 C 0.57,1.242 0.398,1.563 0.238,1.543 C 0.082,1.52 0,1.164 0.058,0.742 C 0.117,0.32 0.289,0 0.445,0.02 C 0.605,0.043 0.687,0.399 0.629,0.82 z " />
    </g>
    <g
       id="g2496"
       style="fill:#5262be;fill-rule:evenodd;stroke:none;stroke-width:1pt;stroke-linecap:butt;stroke-linejoin:miter;stroke-dasharray:none"
       transform="matrix(1.290432,0,0,1.290432,341.2764,399.553)">
      <path
         id="path2498"
         d="M 2.719,25.976 C 2.719,25.976 3.324,19.332 0,15.707 C 0,15.707 0.453,9.968 3.324,7.402 C 3.324,7.402 4.531,3.019 2.57,0.152 C 2.57,0.152 4.684,0 4.684,0 C 4.684,0 6.348,6.343 6.496,7.703 C 6.496,7.703 12.539,9.363 17.219,7.851 C 17.219,7.851 16.312,2.265 15.707,1.66 C 15.707,1.66 19.637,3.172 19.637,3.172 C 19.637,3.172 23.562,14.195 24.168,14.195 C 24.168,14.195 23.109,19.785 19.484,20.39 C 19.484,20.39 15.859,25.828 15.859,25.828 C 15.859,25.828 3.324,25.824 2.719,25.976 z " />
    </g>
    <g
       id="g2500"
       style="fill:#aeb5df;fill-rule:evenodd;stroke:none;stroke-width:1pt;stroke-linecap:butt;stroke-linejoin:miter;stroke-dasharray:none"
       transform="matrix(1.290432,0,0,1.290432,366.4192,425.8649)">
      <path
         id="path2502"
         d="M 0,4.832 C 0,4.832 0,0 0,0 C 0,0 2.114,0.149 2.114,0.149 C 2.114,0.149 2.567,5.586 2.567,5.586 C 2.567,5.586 0,4.832 0,4.832 z " />
    </g>
    <g
       id="g2504"
       style="fill:#aeb5df;fill-rule:evenodd;stroke:none;stroke-width:1pt;stroke-linecap:butt;stroke-linejoin:miter;stroke-dasharray:none"
       transform="matrix(1.290432,0,0,1.290432,378.6989,424.3022)">
      <path
         id="path2506"
         d="M 0,7.25 C 0,7.25 0,0.454 0,0.454 C 0,0.454 2.418,0 2.418,0 C 2.418,0 4.984,1.664 4.984,1.664 C 4.984,1.664 3.926,8.762 3.926,8.762 C 3.926,8.762 0,7.25 0,7.25 z " />
    </g>
    <g
       id="g2508"
       style="fill:#aeb5df;fill-rule:evenodd;stroke:none;stroke-width:1pt;stroke-linecap:butt;stroke-linejoin:miter;stroke-dasharray:none"
       transform="matrix(1.290432,0,0,1.290432,333.8719,341.2771)">
      <path
         id="path2510"
         d="M 3.023,15.105 C 3.023,15.105 0,9.515 4.23,6.343 C 4.23,6.343 8.308,3.324 9.062,3.324 C 9.062,3.324 15.859,1.211 15.859,1.211 C 15.859,1.211 19.183,0 19.785,1.211 C 19.785,1.211 21.902,4.382 21.902,4.382 C 21.902,4.382 17.218,5.285 15.558,7.25 C 15.558,7.25 14.953,5.738 14.953,5.738 C 14.953,5.738 12.988,7.855 12.988,7.855 C 12.988,7.855 12.082,6.496 12.082,6.496 C 12.082,6.496 7.55,14.652 7.55,14.652 C 7.55,14.652 3.926,18.125 3.023,15.105 z " />
    </g>
    <g
       id="g2512"
       style="fill:#aeb5df;fill-rule:evenodd;stroke:none;stroke-width:1pt;stroke-linecap:butt;stroke-linejoin:miter;stroke-dasharray:none"
       transform="matrix(1.290432,0,0,1.290432,321.9806,359.2064)">
      <path
         id="path2514"
         d="M 0.605,29.152 C 0.605,29.152 12.086,32.172 12.535,24.77 C 12.535,24.77 5.742,8.008 5.742,8.008 C 5.742,8.008 6.344,2.871 11.633,3.324 C 11.633,3.324 10.273,0.606 7.703,0.305 C 7.703,0.305 0,0 1.816,8.309 C 1.816,8.309 7.703,22.656 6.648,24.168 C 6.648,24.168 4.383,29.152 0.605,29.152 z " />
    </g>
    <g
       id="g2516"
       style="fill:#f5d5c9;fill-rule:evenodd;stroke:none;stroke-width:1pt;stroke-linecap:butt;stroke-linejoin:miter;stroke-dasharray:none"
       transform="matrix(1.290432,0,0,1.290432,329.0018,350.4353)">
      <path
         id="path2518"
         d="M 16.008,45.766 C 16.008,45.766 15.555,40.328 14.196,38.516 C 14.196,38.516 16.461,37.004 16.461,37.004 C 16.461,37.004 17.516,33.684 17.821,28.547 C 17.821,28.547 10.719,22.356 9.664,20.391 C 9.664,20.391 5.438,22.051 1.356,16.918 C 1.356,16.918 0,9.969 7.399,10.574 C 7.399,10.574 15.102,0 15.102,0 C 15.102,0 16.762,0.758 16.762,0.758 C 16.762,0.758 17.067,2.117 17.067,2.117 C 17.067,2.117 18.422,2.571 18.422,2.571 C 18.422,2.571 19.028,6.949 24.918,5.289 C 24.918,5.289 26.43,4.684 27.637,3.172 C 27.637,3.172 30.961,3.324 30.961,3.324 C 30.961,3.324 33.074,5.137 33.074,5.137 C 33.074,5.137 29.149,10.574 32.621,14.5 C 32.621,14.5 34.133,16.012 34.133,16.012 C 34.133,16.012 32.926,24.016 32.926,24.016 C 32.926,24.016 30.356,29.453 27.637,30.965 C 27.637,30.965 21.746,29.453 21.746,29.453 C 21.746,29.453 21.446,40.328 24.617,40.176 C 24.617,40.176 25.824,40.176 25.824,40.176 C 25.824,40.176 26.731,45.914 26.731,45.914 C 26.731,45.914 21.746,48.031 16.008,45.766 z " />
    </g>
    <g
       id="g2520"
       style="fill:#f3c7b7;fill-rule:evenodd;stroke:none;stroke-width:1pt;stroke-linecap:butt;stroke-linejoin:miter;stroke-dasharray:none"
       transform="matrix(1.290432,0,0,1.290432,362.7195,367.7864)">
      <path
         id="path2522"
         d="M 7.699,3.32 C 7.699,3.32 3.621,5.132 1.66,4.832 C 1.66,4.832 0,4.679 0.754,2.867 C 0.754,2.867 3.926,0 5.738,0.753 C 5.738,0.753 8.758,2.566 7.699,3.32 z " />
    </g>
    <g
       id="g2524"
       style="fill:#f3c7b7;fill-rule:evenodd;stroke:none;stroke-width:1pt;stroke-linecap:butt;stroke-linejoin:miter;stroke-dasharray:none"
       transform="matrix(1.290432,0,0,1.290432,329.3902,363.6932)">
      <path
         id="path2526"
         d="M 0,4.531 C 0,4.531 2.566,9.664 5.586,10.422 C 5.586,10.422 9.363,11.324 9.363,9.816 C 9.363,9.816 7.402,2.718 7.551,0.906 C 7.551,0.906 1.66,0 0,4.531 z " />
    </g>
    <g
       id="g2528"
       style="fill:#eeaa90;fill-rule:evenodd;stroke:none;stroke-width:1pt;stroke-linecap:butt;stroke-linejoin:miter;stroke-dasharray:none"
       transform="matrix(1.290432,0,0,1.290432,359.4031,378.6996)">
      <path
         id="path2530"
         d="M 6.191,3.773 C 6.191,3.773 3.023,4.226 3.023,4.226 C 3.023,4.226 0,2.566 0,1.507 C 0,1.507 7.25,0 8.156,1.054 C 8.156,1.054 9.515,3.773 6.191,3.773 z " />
    </g>
    <g
       id="g2532"
       style="fill:#fbf1ed;fill-rule:evenodd;stroke:none;stroke-width:1pt;stroke-linecap:butt;stroke-linejoin:miter;stroke-dasharray:none"
       transform="matrix(1.290432,0,0,1.290432,339.5227,359.9884)">
      <path
         id="path2534"
         d="M 0,3.324 C 0,3.324 1.359,16.007 12.234,19.937 C 12.234,19.937 2.718,13.593 3.929,0 C 3.929,0 0,3.324 0,3.324 z " />
    </g>
    <g
       id="g2536"
       style="fill:#fbf1ed;fill-rule:evenodd;stroke:none;stroke-width:1pt;stroke-linecap:butt;stroke-linejoin:miter;stroke-dasharray:none"
       transform="matrix(1.290432,0,0,1.290432,364.6655,364.6662)">
      <path
         id="path2538"
         d="M 3.32,4.683 C 3.32,4.683 0.453,5.738 0.453,5.738 C 0.453,5.738 0,2.871 0.906,0 C 0.906,0 2.266,4.683 3.32,4.683 z " />
    </g>
    <g
       id="g2540"
       style="fill:white;fill-rule:evenodd;stroke:none;stroke-width:1pt;stroke-linecap:butt;stroke-linejoin:miter;stroke-dasharray:none"
       transform="matrix(1.290432,0,0,1.290432,350.4359,359.9884)">
      <path
         id="path2542"
         d="M 0,3.625 C 0,3.625 1.211,6.191 6.648,5.285 C 6.648,5.285 9.214,3.777 7.402,2.566 C 7.402,2.566 2.117,0 0,3.625 z " />
    </g>
    <g
       id="g2544"
       style="fill:#f3c7b7;fill-rule:evenodd;stroke:none;stroke-width:1pt;stroke-linecap:butt;stroke-linejoin:miter;stroke-dasharray:none"
       transform="matrix(1.290432,0,0,1.290432,317.1105,397.0173)">
      <path
         id="path2546"
         d="M 0,30.508 C 0,30.508 12.082,29.301 12.082,29.301 C 12.082,29.301 19.18,27.793 18.426,24.469 C 18.426,24.469 16.766,15.105 16.766,15.105 C 16.766,15.105 19.934,12.539 19.934,12.539 C 19.934,12.539 22.204,8.914 22.204,8.914 C 22.204,8.914 23.258,3.476 20.844,1.512 C 20.844,1.512 17.821,0 16.465,0.453 C 16.465,0.453 11.93,2.719 8.911,11.027 C 8.911,11.027 8.911,12.086 8.911,12.086 C 8.911,12.086 13.289,18.73 13.289,18.73 C 13.289,18.73 13.743,20.539 10.875,21.144 C 10.875,21.144 6.946,15.406 6.946,15.406 C 6.946,15.406 2.567,29.754 0,30.508 z " />
    </g>
    <g
       id="g2548"
       style="fill:#aeb5df;fill-rule:evenodd;stroke:none;stroke-width:1pt;stroke-linecap:butt;stroke-linejoin:miter;stroke-dasharray:none"
       transform="matrix(1.290432,0,0,1.290432,321.2037,407.7382)">
      <path
         id="path2550"
         d="M 0,3.625 C 0,3.625 2.418,5.286 2.418,5.286 C 2.418,5.286 7.703,12.836 7.703,12.836 C 7.703,12.836 10.571,11.629 10.117,10.422 C 10.117,10.422 5.285,3.926 5.285,3.926 C 5.285,3.926 4.68,0.606 4.68,0.606 C 4.68,0.606 1.508,0 0,3.625 z " />
    </g>
    <g
       id="g2552"
       style="fill:#aeb5df;fill-rule:evenodd;stroke:none;stroke-width:1pt;stroke-linecap:butt;stroke-linejoin:miter;stroke-dasharray:none"
       transform="matrix(1.290432,0,0,1.290432,338.7458,430.735)">
      <path
         id="path2554"
         d="M 0,2.265 C 0,2.265 1.75,0.277 2.266,0 C 2.266,0 2.867,1.359 2.867,1.359 C 2.867,1.359 0,2.265 0,2.265 z " />
    </g>
    <g
       id="g2556"
       style="fill:white;fill-rule:evenodd;stroke:none;stroke-width:1pt;stroke-linecap:butt;stroke-linejoin:miter;stroke-dasharray:none"
       transform="matrix(1.290432,0,0,1.290432,301.5195,510.5444)">
      <path
         id="path2558"
         d="M 99.079,49.395 C 98.344,37.465 96.594,26.387 93.036,19.559 C 93.036,19.559 87.903,1.286 83.821,0 C 83.821,0 69.004,10.176 69.004,10.176 C 69.004,10.176 44.672,6.594 42.121,4.77 C 42.121,4.77 0,39.497 4.532,103.836 C 4.532,103.836 26.942,125.907 35.516,145.778 C 77.196,133.094 93.161,80.977 99.079,49.395 z " />
    </g>
    <g
       id="g2560"
       style="fill:#dfe2f2;fill-rule:evenodd;stroke:none;stroke-width:1pt;stroke-linecap:butt;stroke-linejoin:miter;stroke-dasharray:none"
       transform="matrix(1.290432,0,0,1.290432,347.3504,574.2852)">
      <path
         id="path2562"
         d="M 38.566,104.887 C 38.566,104.887 59.332,77.398 62.051,55.047 C 62.051,55.047 65.141,25.562 63.563,0 C 57.645,31.582 41.68,83.699 0,96.383 C 1.258,99.289 2.223,102.148 2.773,104.887 C 2.773,104.887 24.141,109.418 38.566,104.887 z " />
    </g>
    <g
       id="g2564"
       style="fill:#f0b8a4;fill-rule:evenodd;stroke:none;stroke-width:1pt;stroke-linecap:butt;stroke-linejoin:miter;stroke-dasharray:none"
       transform="matrix(1.290432,0,0,1.290432,289.0436,712.0685)">
      <path
         id="path2566"
         d="M 24.821,3.27 C 22.168,2.723 19.282,1.715 16.313,0 C 16.313,0 15.633,5.211 15.633,5.211 C 15.633,5.211 0.68,16.539 0,17.899 C 0,17.899 23.563,26.282 30.133,30.586 C 30.133,30.586 30.153,30.575 30.153,30.575 C 29.887,23.547 29.454,16.852 29.454,9.293 C 24.149,9.293 24.547,6.75 24.821,3.27 z " />
    </g>
    <g
       id="g2568"
       style="fill:#e66d3d;fill-rule:evenodd;stroke:none;stroke-width:1pt;stroke-linecap:butt;stroke-linejoin:miter;stroke-dasharray:none"
       transform="matrix(1.290432,0,0,1.290432,320.2062,715.2856)">
      <path
         id="path2570"
         d="M 17.312,4.531 C 17.312,4.531 14.367,0 14.367,0 C 14.367,0 8.535,2.406 0.672,0.777 C 0.398,4.257 0,6.8 5.305,6.8 C 5.305,14.359 5.738,21.054 6.004,28.082 C 6.004,28.082 32.945,12.461 32.945,12.461 C 32.945,12.461 17.312,4.531 17.312,4.531 z " />
    </g>
    <g
       id="g2572"
       style="fill:#f0b8a4;fill-rule:evenodd;stroke:none;stroke-width:1pt;stroke-linecap:butt;stroke-linejoin:miter;stroke-dasharray:none"
       transform="matrix(1.290432,0,0,1.290432,390.4896,710.4465)">
      <path
         id="path2574"
         d="M 0,9.64 C 0,9.64 10.875,20.289 10.875,20.289 C 10.875,20.289 46.215,17.343 48.254,16.89 C 48.254,16.89 21.453,0 21.453,0 C 15.742,2.328 9.625,3.816 3.101,4.707 C 3.101,4.707 0,9.64 0,9.64 z " />
    </g>
    <g
       id="g2576"
       style="fill:#e66d3d;fill-rule:evenodd;stroke:none;stroke-width:1pt;stroke-linecap:butt;stroke-linejoin:miter;stroke-dasharray:none"
       transform="matrix(1.290432,0,0,1.290432,394.4912,706.8062)">
      <path
         id="path2578"
         d="M 12.078,0 C 12.078,0 1.883,4.532 1.883,4.532 C 1.883,4.532 0,7.528 0,7.528 C 6.524,6.637 12.641,5.149 18.352,2.821 C 18.352,2.821 18.196,2.719 18.196,2.719 C 18.196,2.719 12.078,0 12.078,0 z " />
    </g>
    <g
       id="g2580"
       style="fill:white;fill-rule:evenodd;stroke:none;stroke-width:1pt;stroke-linecap:butt;stroke-linejoin:miter;stroke-dasharray:none"
       transform="matrix(1.290432,0,0,1.290432,293.062,644.0641)">
      <path
         id="path2582"
         d="M 5.558,19.653 C 5.008,13.129 5.824,6.762 5.668,0.121 C 3.558,0 1.582,0.27 0,0.625 C 1.59,6.977 1.797,13.547 3.195,19.821 C 3.941,19.633 4.738,19.586 5.558,19.653 z " />
    </g>
    <g
       id="g2584"
       style="fill:#aeb5df;fill-rule:evenodd;stroke:none;stroke-width:1pt;stroke-linecap:butt;stroke-linejoin:miter;stroke-dasharray:none"
       transform="matrix(1.290432,0,0,1.290432,286.1207,644.8706)">
      <path
         id="path2586"
         d="M 5.379,0 C 3.23,0.473 1.812,1.102 1.812,1.102 C 0,8.805 6.57,20.133 6.57,20.133 C 7.187,19.676 7.859,19.375 8.574,19.196 C 7.176,12.922 6.969,6.352 5.379,0 z " />
    </g>
    <g
       id="g2588"
       style="fill:#aeb5df;fill-rule:evenodd;stroke:none;stroke-width:1pt;stroke-linecap:butt;stroke-linejoin:miter;stroke-dasharray:none"
       transform="matrix(1.290432,0,0,1.290432,299.5245,644.2202)">
      <path
         id="path2590"
         d="M 7.058,1.832 C 4.976,0.625 2.753,0.121 0.66,0 C 0.816,6.641 0,13.008 0.55,19.532 C 3.543,19.766 6.906,21.496 9.847,23.469 C 12.035,19.731 14.55,16.125 17.316,12.821 C 11.574,6.074 7.058,1.832 7.058,1.832 z " />
    </g>
    <g
       id="g2592"
       style="fill:#aeb5df;fill-rule:evenodd;stroke:none;stroke-width:1pt;stroke-linecap:butt;stroke-linejoin:miter;stroke-dasharray:none"
       transform="matrix(1.290432,0,0,1.290432,336.5831,699.7643)">
      <path
         id="path2594"
         d="M 0,1.547 C 1.485,4.465 2.356,6.59 2.356,6.59 C 2.356,6.59 10.961,7.953 10.961,7.953 C 10.235,5.281 9.285,2.621 8.18,0 C 5.453,0.621 2.727,1.114 0,1.547 z " />
    </g>
    <g
       id="g2596"
       style="fill:#5262be;fill-rule:evenodd;stroke:none;stroke-width:1pt;stroke-linecap:butt;stroke-linejoin:miter;stroke-dasharray:none"
       transform="matrix(1.290432,0,0,1.290432,312.2313,660.7648)">
      <path
         id="path2598"
         d="M 7.469,0 C 4.703,3.304 2.188,6.91 0,10.648 C 4.266,13.515 7.633,16.879 7.633,16.879 C 12.289,19.984 16.418,26.953 18.871,31.769 C 21.598,31.336 24.324,30.843 27.051,30.222 C 22.129,18.582 14.004,7.671 7.469,0 z " />
    </g>
    <g
       id="g2600"
       style="fill:#5262be;fill-rule:evenodd;stroke:none;stroke-width:1pt;stroke-linecap:butt;stroke-linejoin:miter;stroke-dasharray:none"
       transform="matrix(1.290432,0,0,1.290432,396.9211,654.1862)">
      <path
         id="path2602"
         d="M 0,43.273 C 0,43.273 6.117,41.461 6.117,41.461 C 6.117,41.461 25.602,13.367 22.883,0 C 22.883,0 21.75,0.227 21.75,0.227 C 21.75,0.227 11.555,33.758 0,43.273 z " />
    </g>
    <g
       id="g2604"
       style="fill:#5262be;fill-rule:evenodd;stroke:none;stroke-width:1pt;stroke-linecap:butt;stroke-linejoin:miter;stroke-dasharray:none"
       transform="matrix(1.290432,0,0,1.290432,319.45,683.4222)">
      <path
         id="path2606"
         d="M 3.852,8.383 C 3.852,8.383 0.906,6.344 0.906,6.344 C 0.906,6.344 0,0 0,0 C 0,0 3.625,2.492 3.625,2.492 C 3.625,2.492 3.852,8.383 3.852,8.383 z " />
    </g>
    <g
       id="g2608"
       style="fill:#aeb5df;fill-rule:evenodd;stroke:none;stroke-width:1pt;stroke-linecap:butt;stroke-linejoin:miter;stroke-dasharray:none"
       transform="matrix(1.290432,0,0,1.290432,300.1542,670.5579)">
      <path
         id="path2610"
         d="M 25.828,21.524 C 26.055,19.938 21.523,13.821 21.523,13.821 C 21.523,13.821 19.258,13.594 19.258,13.594 C 19.258,13.594 19.484,21.524 19.484,21.524 C 19.484,21.524 20.679,22.629 20.679,22.629 C 20.679,22.629 20.164,23.336 20.164,23.336 C 17.672,23.559 14.84,28.723 14.84,28.723 C 14.84,28.723 13.5,20.946 13.5,20.946 C 14.328,20.793 15.023,20.485 15.406,19.938 C 15.406,19.938 13.367,7.477 13.367,7.477 C 13.367,7.477 10.195,1.133 0,0 C 0,0 0,1.813 0,1.813 C 0,1.813 1.812,4.532 1.812,4.532 C 1.812,4.532 2.414,7.25 2.414,7.25 C 2.414,7.25 4.621,8.247 4.621,8.247 C 4.621,8.247 5.437,19.258 7.023,20.391 C 7.023,20.391 8.359,20.743 9.984,20.946 C 9.984,20.946 11.328,29.676 11.328,29.676 C 11.328,29.676 9.289,30.129 9.289,30.129 C 9.289,30.129 9.062,32.848 9.062,32.848 C 12.687,36.247 25.148,35.793 25.148,35.793 C 25.148,35.793 24.922,30.129 24.922,30.129 C 24.922,30.129 25.828,21.524 25.828,21.524 z " />
    </g>
    <g
       id="g2612"
       style="fill:white;fill-rule:evenodd;stroke:none;stroke-width:1pt;stroke-linecap:butt;stroke-linejoin:miter;stroke-dasharray:none"
       transform="matrix(1.290432,0,0,1.290432,304.832,671.4354)">
      <path
         id="path2614"
         d="M 0,0 C 0,0 0.453,6.797 0.453,6.797 C 0.453,6.797 2.265,6.797 2.265,6.797 C 2.265,6.797 6.117,20.391 6.117,20.391 C 6.117,20.391 8.609,20.613 8.609,20.613 C 8.609,20.613 5.89,6.57 5.89,6.57 C 5.89,6.57 4.078,6.57 4.078,6.57 C 4.078,6.57 3.398,0.906 3.398,0.906 C 3.398,0.906 0,0 0,0 z " />
    </g>
    <g
       id="g2616"
       style="fill:white;fill-rule:evenodd;stroke:none;stroke-width:1pt;stroke-linecap:butt;stroke-linejoin:miter;stroke-dasharray:none"
       transform="matrix(1.290432,0,0,1.290432,313.8947,710.0271)">
      <path
         id="path2618"
         d="M 2.266,0.676 C 2.266,0.676 1.813,3.621 1.813,3.621 C 1.813,3.621 0,3.168 0,3.168 C 0,3.168 0,0 0,0 C 0,0 2.266,0.676 2.266,0.676 z " />
    </g>
    <g
       id="g2620"
       style="fill:white;fill-rule:evenodd;stroke:none;stroke-width:1pt;stroke-linecap:butt;stroke-linejoin:miter;stroke-dasharray:none"
       transform="matrix(1.290432,0,0,1.290432,325.8815,687.8084)">
      <path
         id="path2622"
         d="M 0.742,9.261 C 0.742,9.261 0,0 0,0 C 0,0 2.266,0.906 2.266,0.906 C 2.266,0.906 1.813,9.058 1.813,9.058 C 1.813,9.058 0.742,9.261 0.742,9.261 z " />
    </g>
    <g
       id="g2624"
       style="fill:#5262be;fill-rule:evenodd;stroke:none;stroke-width:1pt;stroke-linecap:butt;stroke-linejoin:miter;stroke-dasharray:none"
       transform="matrix(1.290432,0,0,1.290432,286.9982,470.2042)">
      <path
         id="path2626"
         d="M 2.058,0 C 2.058,0 3.398,11.402 3.398,11.402 C 3.398,11.402 1.359,14.801 1.359,14.801 C 1.359,14.801 0,57.843 0,57.843 C 0,57.843 0.812,61.019 0.812,61.019 C 8.949,41.484 12.07,19.265 2.058,0 z " />
    </g>
    <g
       id="g2628"
       style="fill:#aeb5df;fill-rule:evenodd;stroke:none;stroke-width:1pt;stroke-linecap:butt;stroke-linejoin:miter;stroke-dasharray:none"
       transform="matrix(1.290432,0,0,1.290432,289.6294,460.6511)">
      <path
         id="path2630"
         d="M 2.949,0 C 2.949,0 0,7.25 0,7.25 C 0,7.25 0.019,7.403 0.019,7.403 C 0.375,8.09 0.714,8.782 1.035,9.477 C 1.546,6.743 2.703,4.172 4.062,1.696 C 3.378,0.59 2.949,0 2.949,0 z " />
    </g>
    <g
       id="g2632"
       style="fill:white;fill-rule:evenodd;stroke:none;stroke-width:1pt;stroke-linecap:butt;stroke-linejoin:miter;stroke-dasharray:none"
       transform="matrix(1.290432,0,0,1.290432,290.965,462.8397)">
      <path
         id="path2634"
         d="M 3.027,0 C 1.668,2.476 0.511,5.047 0,7.781 C 1.406,10.793 2.5,13.867 3.32,16.992 C 5.058,15.578 6.812,13.824 8.683,12.222 C 6.707,6.41 4.371,2.183 3.027,0 z " />
    </g>
    <g
       id="g2636"
       style="fill:#aeb5df;fill-rule:evenodd;stroke:none;stroke-width:1pt;stroke-linecap:butt;stroke-linejoin:miter;stroke-dasharray:none"
       transform="matrix(1.290432,0,0,1.290432,295.2493,478.6113)">
      <path
         id="path2638"
         d="M 5.363,0 C 3.492,1.602 1.738,3.356 0,4.77 C 2.262,13.36 2.41,22.293 1.094,31.133 C 3.277,31.786 5.387,32.961 7.527,34.164 C 10.356,20.328 8.242,8.477 5.363,0 z " />
    </g>
    <g
       id="g2640"
       style="fill:#5262be;fill-rule:evenodd;stroke:none;stroke-width:1pt;stroke-linecap:butt;stroke-linejoin:miter;stroke-dasharray:none"
       transform="matrix(1.290432,0,0,1.290432,288.0461,518.7863)">
      <path
         id="path2642"
         d="M 6.676,0 C 5.672,6.774 3.805,13.488 1.352,19.953 C 0.918,21.102 0.473,22.242 0,23.371 C 0,23.371 1.68,29.938 1.68,29.938 C 2.824,28.192 3.875,26.461 4.84,24.746 C 9.129,17.141 11.719,9.844 13.109,3.031 C 10.969,1.828 8.859,0.653 6.676,0 z " />
    </g>
    <g
       id="g2644"
       style="fill:#dfe2f2;fill-rule:evenodd;stroke:none;stroke-width:1pt;stroke-linecap:butt;stroke-linejoin:miter;stroke-dasharray:none"
       transform="matrix(1.290432,0,0,1.290432,253.9658,481.7019)">
      <path
         id="path2646"
         d="M 0,82.465 C 0,82.465 3.172,38.965 24.012,0 C 24.012,0 27.637,6.57 27.41,9.515 C 27.41,9.515 0,82.465 0,82.465 z " />
    </g>
    <g
       id="g2648"
       style="fill:#dfe2f2;fill-rule:evenodd;stroke:none;stroke-width:1pt;stroke-linecap:butt;stroke-linejoin:miter;stroke-dasharray:none"
       transform="matrix(1.290432,0,0,1.290432,295.4764,435.2154)">
      <path
         id="path2650"
         d="M 3.851,28.094 C 3.851,28.094 0,21.977 0,21.977 C 0,21.977 6.57,4.305 6.57,4.305 C 6.57,4.305 15.633,0.231 28.094,0 C 28.094,0 12.461,20.844 12.461,20.844 C 12.461,20.844 3.172,23.789 3.851,28.094 z " />
    </g>
    <g
       id="g2652"
       style="fill:#5262be;fill-rule:evenodd;stroke:none;stroke-width:1pt;stroke-linecap:butt;stroke-linejoin:miter;stroke-dasharray:none"
       transform="matrix(1.290432,0,0,1.290432,270.0407,432.2977)">
      <path
         id="path2654"
         d="M 125.058,78.609 C 125.058,78.609 118.254,60.019 113.785,56.176 C 113.785,56.176 115.316,42.136 115.316,42.136 C 115.316,42.136 106.48,16.761 106.48,16.761 C 106.48,16.761 101.043,7.019 101.043,7.019 C 93.113,0 58.68,0.453 58.68,0.453 C 58.68,0.453 52.336,1.129 52.336,1.129 C 46.219,2.492 26.055,25.597 26.055,25.597 C 26.055,25.597 22.883,30.129 22.883,30.129 C 35.57,66.832 18.805,92.429 18.805,92.429 C 11.101,96.734 0,131.851 0,131.851 C 0,131.851 11.101,161.754 11.101,161.754 C 11.101,164.472 14.047,166.738 14.047,166.738 C 16.996,162.433 28.773,164.019 28.773,164.019 C 20.211,113.816 61.851,67.734 61.851,67.734 C 61.398,53.238 89.035,39.871 89.035,39.871 C 102.891,45.414 109.461,57.168 111.785,62.406 C 111.785,62.406 111.918,63.886 111.918,63.886 C 111.918,63.886 126.191,103.304 123.699,134.117 C 123.699,134.117 124.152,142.273 124.152,142.273 C 124.152,142.273 126.414,149.293 128.004,149.519 C 128.004,149.519 136.156,94.242 125.058,78.609 z " />
    </g>
    <g
       id="g2656"
       style="fill:white;fill-rule:evenodd;stroke:none;stroke-width:1pt;stroke-linecap:butt;stroke-linejoin:miter;stroke-dasharray:none"
       transform="matrix(1.290432,0,0,1.290432,323.311,448.6398)">
      <path
         id="path2658"
         d="M 14.68,3.191 C 14.309,2.086 13.895,1.027 13.442,0 C 7.113,1.32 2.024,5.64 0,11.273 C 7.442,13.39 17.914,13.703 14.68,3.191 z " />
    </g>
    <g
       id="g2660"
       style="fill:#aeb5df;fill-rule:evenodd;stroke:none;stroke-width:1pt;stroke-linecap:butt;stroke-linejoin:miter;stroke-dasharray:none"
       transform="matrix(1.290432,0,0,1.290432,322.0812,448.0797)">
      <path
         id="path2662"
         d="M 18.465,0 C 17.063,0 15.703,0.156 14.395,0.434 C 14.848,1.461 15.262,2.52 15.633,3.625 C 18.867,14.137 8.395,13.824 0.953,11.707 C 0.344,13.406 0,15.215 0,17.106 C 0,21.946 2.18,26.305 5.664,29.414 C 16.023,23.656 24.352,13.746 27.324,2.102 C 24.695,0.766 21.676,0 18.465,0 z " />
    </g>
    <g
       id="g2664"
       style="fill:#7885cb;fill-rule:evenodd;stroke:none;stroke-width:1pt;stroke-linecap:butt;stroke-linejoin:miter;stroke-dasharray:none"
       transform="matrix(1.290432,0,0,1.290432,329.3902,450.7922)">
      <path
         id="path2666"
         d="M 21.66,0 C 18.688,11.644 10.359,21.554 0,27.312 C 3.289,30.25 7.75,32.07 12.672,32.101 C 15.305,23.871 23.152,18.761 31.262,15.043 C 31.262,15.031 31.262,15.019 31.262,15.004 C 31.262,8.531 27.383,2.902 21.66,0 z " />
    </g>
    <g
       id="g2668"
       style="fill:#aeb5df;fill-rule:evenodd;stroke:none;stroke-width:1pt;stroke-linecap:butt;stroke-linejoin:miter;stroke-dasharray:none"
       transform="matrix(1.290432,0,0,1.290432,345.7426,470.2042)">
      <path
         id="path2670"
         d="M 0,17.058 C 0.043,17.058 0.086,17.066 0.129,17.066 C 10.309,17.066 18.562,9.429 18.59,0 C 10.48,3.718 2.633,8.828 0,17.058 z " />
    </g>
    <g
       id="g2672"
       style="fill:white;fill-rule:evenodd;stroke:none;stroke-width:1pt;stroke-linecap:butt;stroke-linejoin:miter;stroke-dasharray:none"
       transform="matrix(1.290432,0,0,1.290432,389.0985,454.9758)">
      <path
         id="path2674"
         d="M 14.445,3.719 C 10.179,3.008 5.914,1.191 1.648,0 C 0.707,2.988 0.179,5.68 0,8.094 C 5.308,7.578 10.953,8.609 14.445,3.719 z " />
    </g>
    <g
       id="g2676"
       style="fill:#aeb5df;fill-rule:evenodd;stroke:none;stroke-width:1pt;stroke-linecap:butt;stroke-linejoin:miter;stroke-dasharray:none"
       transform="matrix(1.290432,0,0,1.290432,388.4778,448.6643)">
      <path
         id="path2678"
         d="M 16.059,9.969 C 16.059,9.969 13.113,2.946 13.113,2.946 C 10.621,0 3.371,1.36 3.371,1.36 C 2.883,2.59 2.488,3.754 2.129,4.891 C 6.395,6.082 10.66,7.899 14.926,8.61 C 11.434,13.5 5.789,12.469 0.481,12.985 C 0,19.43 1.906,23.93 4.481,27.039 C 9.43,25.621 13.934,23.664 17.992,20.547 C 17.992,20.547 16.059,9.969 16.059,9.969 z " />
    </g>
    <g
       id="g2680"
       style="fill:#7885cb;fill-rule:evenodd;stroke:none;stroke-width:1pt;stroke-linecap:butt;stroke-linejoin:miter;stroke-dasharray:none"
       transform="matrix(1.290432,0,0,1.290432,394.2602,475.1788)">
      <path
         id="path2682"
         d="M 13.511,0 C 9.453,3.117 4.949,5.074 0,6.492 C 2.089,9.012 4.613,10.61 6.656,11.594 C 9.539,7.969 11.679,4.32 13.582,0.383 C 13.582,0.383 13.511,0 13.511,0 z " />
    </g>
    <g
       id="g2684"
       style="fill:#aeb5df;fill-rule:evenodd;stroke:none;stroke-width:1pt;stroke-linecap:butt;stroke-linejoin:miter;stroke-dasharray:none"
       transform="matrix(1.290432,0,0,1.290432,402.8493,475.673)">
      <path
         id="path2686"
         d="M 0,11.211 C 2.164,12.25 3.789,12.602 3.789,12.602 C 3.789,12.602 8.32,7.617 8.32,7.617 C 8.32,7.617 6.926,0 6.926,0 C 5.023,3.937 2.883,7.586 0,11.211 z " />
    </g>
    <g
       id="g2688"
       style="fill:#f0b8a4;fill-rule:evenodd;stroke:none;stroke-width:1pt;stroke-linecap:butt;stroke-linejoin:miter;stroke-dasharray:none"
       transform="matrix(1.290432,0,0,1.290432,348.7015,483.7485)">
      <path
         id="path2690"
         d="M 46.539,21.437 C 46.539,21.437 47.109,21.07 47.109,21.07 C 47.109,21.07 49.828,21.07 49.828,21.07 C 49.828,21.07 41.055,0.215 28.078,0 C 28.078,0 3.66,14.922 0,24.89 C 15.512,24.004 31.027,19.539 46.539,21.437 z " />
    </g>
    <g
       id="g2692"
       style="fill:#e66d3d;fill-rule:evenodd;stroke:none;stroke-width:1pt;stroke-linecap:butt;stroke-linejoin:miter;stroke-dasharray:none"
       transform="matrix(1.290432,0,0,1.290432,348.686,508.9623)">
      <path
         id="path2694"
         d="M 0.012,5.351 C 0.008,5.363 0.004,5.371 0,5.383 C 0,5.383 4.981,7.195 9.063,7.648 C 9.063,7.648 30.129,12.402 31.715,11.5 C 31.715,11.5 46.551,1.898 46.551,1.898 C 31.039,0 15.524,4.465 0.012,5.351 z " />
    </g>
    <g
       id="g2696"
       style="fill:#fbf1ed;fill-rule:evenodd;stroke:none;stroke-width:1pt;stroke-linecap:butt;stroke-linejoin:miter;stroke-dasharray:none"
       transform="matrix(1.290432,0,0,1.290432,369.7317,483.7485)">
      <path
         id="path2698"
         d="M 8.156,0 C 8.156,0 15.859,9.969 17.898,18.351 C 17.898,18.351 4.531,7.703 0,6.117 C 0,6.117 8.156,0 8.156,0 z " />
    </g>
    <g
       id="g2700"
       style="fill:white;fill-rule:evenodd;stroke:none;stroke-width:1pt;stroke-linecap:butt;stroke-linejoin:miter;stroke-dasharray:none"
       transform="matrix(1.290432,0,0,1.290432,339.6233,460.6511)">
      <path
         id="path2702"
         d="M 0,3.625 C 0,5.629 1.113,7.25 2.488,7.25 C 3.867,7.25 4.98,5.629 4.98,3.625 C 4.98,1.625 3.867,0 2.488,0 C 1.113,0 0,1.625 0,3.625 z " />
    </g>
    <g
       id="g2704"
       style="fill:white;fill-rule:evenodd;stroke:none;stroke-width:1pt;stroke-linecap:butt;stroke-linejoin:miter;stroke-dasharray:none"
       transform="matrix(1.290432,0,0,1.290432,403.3526,458.6045)">
      <path
         id="path2706"
         d="M 0,2.719 C 0,1.219 0.707,0 1.586,0 C 2.461,0 3.172,1.219 3.172,2.719 C 3.172,4.223 2.461,5.438 1.586,5.438 C 0.707,5.438 0,4.223 0,2.719 z " />
    </g>
    <g
       id="g2708"
       style="fill:#e66d3d;fill-rule:evenodd;stroke:none;stroke-width:1pt;stroke-linecap:butt;stroke-linejoin:miter;stroke-dasharray:none"
       transform="matrix(1.290432,0,0,1.290432,406.8613,455.8778)">
      <path
         id="path2710"
         d="M 2.344,19.106 C 2.344,19.106 4.305,20.313 4.305,20.313 C 4.305,20.313 7.477,20.465 6.797,12.836 C 6.797,12.836 4.832,0 0,0.527 C 0,0.527 5.289,19.18 2.344,19.106 z " />
    </g>
    <g
       id="g2712"
       style="fill:#e66d3d;fill-rule:evenodd;stroke:none;stroke-width:1pt;stroke-linecap:butt;stroke-linejoin:miter;stroke-dasharray:none"
       transform="matrix(1.290432,0,0,1.290432,342.5462,461.8215)">
      <path
         id="path2714"
         d="M 0,14.047 C 0,14.047 3.625,17.898 7.473,16.086 C 7.473,16.086 15.86,12.687 13.59,4.531 C 13.59,4.531 12.231,0.679 9.059,0 C 9.059,0 10.422,12.461 0,14.047 z " />
    </g>
    <g
       id="g2716"
       style="fill:#141693;fill-rule:evenodd;stroke:none;stroke-width:1pt;stroke-linecap:butt;stroke-linejoin:miter;stroke-dasharray:none"
       transform="matrix(1.290432,0,0,1.290432,352.7548,517.0068)">
      <path
         id="path2718"
         d="M 2.265,0.063 C 1.359,0.008 0.589,0 0,0.055 C 0,0.055 1.308,0.196 1.308,0.196 C 1.308,0.196 2.265,0.063 2.265,0.063 z " />
    </g>
    <g
       id="g2720"
       style="fill:#141693;fill-rule:evenodd;stroke:none;stroke-width:1pt;stroke-linecap:butt;stroke-linejoin:miter;stroke-dasharray:none"
       transform="matrix(1.290432,0,0,1.290432,315.7749,647.1095)">
      <path
         id="path2722"
         d="M 2.707,0 C 2.887,0.257 2.992,0.57 2.992,0.906 C 2.992,1.781 2.282,2.492 1.407,2.492 C 0.793,2.492 0.266,2.136 0,1.628 C 0.149,2.375 0.891,2.945 1.785,2.945 C 2.782,2.945 3.594,2.23 3.594,1.355 C 3.594,0.777 3.239,0.277 2.707,0 z " />
    </g>
    <g
       id="g2724"
       style="fill:#141693;fill-rule:evenodd;stroke:none;stroke-width:1pt;stroke-linecap:butt;stroke-linejoin:miter;stroke-dasharray:none"
       transform="matrix(1.290432,0,0,1.290432,330.5903,663.0928)">
      <path
         id="path2726"
         d="M 2.707,0 C 2.883,0.254 2.988,0.567 2.988,0.903 C 2.988,1.778 2.281,2.489 1.406,2.489 C 0.789,2.489 0.261,2.137 0,1.625 C 0.148,2.371 0.886,2.942 1.781,2.942 C 2.785,2.942 3.593,2.231 3.593,1.356 C 3.593,0.778 3.234,0.274 2.707,0 z " />
    </g>
    <g
       id="g2728"
       style="fill:#141693;fill-rule:evenodd;stroke:none;stroke-width:1pt;stroke-linecap:butt;stroke-linejoin:miter;stroke-dasharray:none"
       transform="matrix(1.290432,0,0,1.290432,342.2842,681.0233)">
      <path
         id="path2730"
         d="M 2.703,0 C 2.883,0.254 2.989,0.566 2.989,0.902 C 2.989,1.777 2.281,2.488 1.403,2.488 C 0.789,2.488 0.266,2.137 0,1.625 C 0.149,2.371 0.887,2.941 1.781,2.941 C 2.781,2.941 3.594,2.234 3.594,1.355 C 3.594,0.777 3.235,0.273 2.703,0 z " />
    </g>
    <g
       id="g2732"
       style="fill:#141693;fill-rule:evenodd;stroke:none;stroke-width:1pt;stroke-linecap:butt;stroke-linejoin:miter;stroke-dasharray:none"
       transform="matrix(1.290432,0,0,1.290432,350.4707,699.6533)">
      <path
         id="path2734"
         d="M 2.703,0 C 2.883,0.243 2.988,0.535 2.988,0.852 C 2.988,1.672 2.281,2.336 1.402,2.336 C 0.789,2.336 0.262,2.004 0,1.528 C 0.145,2.227 0.883,2.762 1.781,2.762 C 2.781,2.762 3.594,2.098 3.594,1.274 C 3.594,0.735 3.234,0.262 2.703,0 z " />
    </g>
    <g
       id="g2736"
       style="fill:#141693;fill-rule:evenodd;stroke:none;stroke-width:1pt;stroke-linecap:butt;stroke-linejoin:miter;stroke-dasharray:none"
       transform="matrix(1.290432,0,0,1.290432,386.7241,544.5898)">
      <path
         id="path2738"
         d="M 2.703,0 C 2.883,0.258 2.988,0.571 2.988,0.907 C 2.988,1.781 2.277,2.492 1.402,2.492 C 0.789,2.492 0.261,2.141 0,1.629 C 0.144,2.375 0.883,2.946 1.777,2.946 C 2.781,2.946 3.59,2.235 3.59,1.36 C 3.59,0.781 3.23,0.278 2.703,0 z " />
    </g>
    <g
       id="g2740"
       style="fill:#141693;fill-rule:evenodd;stroke:none;stroke-width:1pt;stroke-linecap:butt;stroke-linejoin:miter;stroke-dasharray:none"
       transform="matrix(1.290432,0,0,1.290432,387.8881,580.0625)">
      <path
         id="path2742"
         d="M 2.707,0 C 2.887,0.257 2.992,0.57 2.992,0.906 C 2.992,1.781 2.281,2.492 1.406,2.492 C 0.789,2.492 0.266,2.136 0,1.628 C 0.149,2.375 0.887,2.945 1.781,2.945 C 2.785,2.945 3.594,2.234 3.594,1.359 C 3.594,0.781 3.238,0.277 2.707,0 z " />
    </g>
    <g
       id="g2744"
       style="fill:#141693;fill-rule:evenodd;stroke:none;stroke-width:1pt;stroke-linecap:butt;stroke-linejoin:miter;stroke-dasharray:none"
       transform="matrix(1.290432,0,0,1.290432,387.4997,615.1455)">
      <path
         id="path2746"
         d="M 2.703,0 C 2.883,0.258 2.989,0.57 2.989,0.906 C 2.989,1.781 2.282,2.492 1.407,2.492 C 0.793,2.492 0.262,2.137 0,1.625 C 0.149,2.371 0.883,2.941 1.782,2.941 C 2.782,2.941 3.594,2.234 3.594,1.355 C 3.594,0.777 3.239,0.277 2.703,0 z " />
    </g>
    <g
       id="g2748"
       style="fill:#141693;fill-rule:evenodd;stroke:none;stroke-width:1pt;stroke-linecap:butt;stroke-linejoin:miter;stroke-dasharray:none"
       transform="matrix(1.290432,0,0,1.290432,385.9421,649.8362)">
      <path
         id="path2750"
         d="M 2.703,0 C 2.883,0.258 2.989,0.566 2.989,0.906 C 2.989,1.781 2.278,2.492 1.403,2.492 C 0.789,2.492 0.262,2.14 0,1.625 C 0.145,2.375 0.887,2.945 1.782,2.945 C 2.782,2.945 3.594,2.234 3.594,1.359 C 3.594,0.777 3.235,0.277 2.703,0 z " />
    </g>
    <g
       id="g2752"
       style="fill:#141693;fill-rule:evenodd;stroke:none;stroke-width:1pt;stroke-linecap:butt;stroke-linejoin:miter;stroke-dasharray:none"
       transform="matrix(1.290432,0,0,1.290432,382.8218,686.4767)">
      <path
         id="path2754"
         d="M 2.703,0 C 2.883,0.258 2.993,0.571 2.993,0.907 C 2.993,1.782 2.282,2.493 1.407,2.493 C 0.789,2.493 0.262,2.137 0,1.629 C 0.145,2.375 0.887,2.946 1.782,2.946 C 2.782,2.946 3.594,2.235 3.594,1.356 C 3.594,0.778 3.235,0.278 2.703,0 z " />
    </g>
    <g
       id="g2756"
       style="fill:#141693;fill-rule:evenodd;stroke:none;stroke-width:1pt;stroke-linecap:butt;stroke-linejoin:miter;stroke-dasharray:none"
       transform="matrix(1.290432,0,0,1.290432,398.8916,697.0028)">
      <path
         id="path2758"
         d="M 1.692,0 C 1.805,0.257 1.872,0.566 1.872,0.906 C 1.872,1.781 1.426,2.488 0.879,2.488 C 0.497,2.488 0.168,2.136 0,1.625 C 0.094,2.375 0.555,2.941 1.114,2.941 C 1.739,2.941 2.247,2.234 2.247,1.359 C 2.247,0.781 2.024,0.277 1.692,0 z " />
    </g>
    <g
       id="g2760"
       style="fill:#141693;fill-rule:evenodd;stroke:none;stroke-width:1pt;stroke-linecap:butt;stroke-linejoin:miter;stroke-dasharray:none"
       transform="matrix(1.290432,0,0,1.290432,407.4717,681.804)">
      <path
         id="path2762"
         d="M 1.687,0 C 1.801,0.254 1.867,0.567 1.867,0.903 C 1.867,1.778 1.422,2.489 0.875,2.489 C 0.492,2.489 0.164,2.133 0,1.625 C 0.09,2.371 0.555,2.942 1.113,2.942 C 1.738,2.942 2.246,2.231 2.246,1.356 C 2.246,0.774 2.019,0.274 1.687,0 z " />
    </g>
    <g
       id="g2764"
       style="fill:#141693;fill-rule:evenodd;stroke:none;stroke-width:1pt;stroke-linecap:butt;stroke-linejoin:miter;stroke-dasharray:none"
       transform="matrix(1.290432,0,0,1.290432,416.4092,665.8208)">
      <path
         id="path2766"
         d="M 1.265,0 C 1.351,0.257 1.402,0.566 1.402,0.902 C 1.402,1.777 1.07,2.488 0.656,2.488 C 0.371,2.488 0.121,2.136 0,1.625 C 0.066,2.375 0.414,2.945 0.836,2.945 C 1.3,2.945 1.683,2.234 1.683,1.355 C 1.683,0.777 1.515,0.273 1.265,0 z " />
    </g>
    <g
       id="g2768"
       style="fill:#141693;fill-rule:evenodd;stroke:none;stroke-width:1pt;stroke-linecap:butt;stroke-linejoin:miter;stroke-dasharray:none"
       transform="matrix(1.290432,0,0,1.290432,421.8626,649.8362)">
      <path
         id="path2770"
         d="M 1.27,0 C 1.356,0.258 1.403,0.566 1.403,0.906 C 1.403,1.781 1.071,2.492 0.66,2.492 C 0.371,2.492 0.125,2.14 0,1.625 C 0.071,2.375 0.414,2.945 0.836,2.945 C 1.305,2.945 1.688,2.234 1.688,1.359 C 1.688,0.777 1.52,0.277 1.27,0 z " />
    </g>
    <g
       id="g2772"
       style="fill:#141693;fill-rule:evenodd;stroke:none;stroke-width:1pt;stroke-linecap:butt;stroke-linejoin:miter;stroke-dasharray:none"
       transform="matrix(1.290432,0,0,1.290432,341.6196,715.3308)">
      <path
         id="path2774"
         d="M 0,0 C 0,0 0.332,2.508 0.332,2.508 C 0.367,1.613 0.324,0.558 0,0 z " />
    </g>
    <g
       id="g2776"
       style="fill:#141693;fill-rule:evenodd;stroke:none;stroke-width:1pt;stroke-linecap:butt;stroke-linejoin:miter;stroke-dasharray:none"
       transform="matrix(1.290432,0,0,1.290432,342.0016,718.5672)">
      <path
         id="path2778"
         d="M 0.036,0 C 0.024,0.21 0.012,0.421 0,0.609 C 0.036,0.605 0.075,0.601 0.114,0.597 C 0.114,0.597 0.036,0 0.036,0 z " />
    </g>
    <g
       id="g2780"
       style="fill:#141693;fill-rule:evenodd;stroke:none;stroke-width:1pt;stroke-linecap:butt;stroke-linejoin:miter;stroke-dasharray:none"
       transform="matrix(1.290432,0,0,1.290432,340.6712,361.8634)">
      <path
         id="path2782"
         d="M 0.047,0 C 0.035,0.019 0.016,0.039 0,0.058 C 0.024,0.09 0.039,0.129 0.067,0.16 C 0.067,0.16 0.055,0.093 0.047,0 z " />
    </g>
    <g
       id="g2784"
       style="fill:#11137e;fill-rule:evenodd;stroke:none;stroke-width:1pt;stroke-linecap:butt;stroke-linejoin:miter;stroke-dasharray:none"
       transform="matrix(1.290432,0,0,1.290432,324.9344,450.0308)">
      <path
         id="path2786"
         d="M 16.449,0 C 7.379,0 0,7.074 0,15.773 C 0,24.473 7.379,31.547 16.449,31.547 C 25.523,31.547 32.902,24.473 32.902,15.773 C 32.902,7.074 25.523,0 16.449,0 z M 16.449,30.641 C 7.879,30.641 0.906,23.973 0.906,15.773 C 0.906,7.574 7.879,0.906 16.449,0.906 C 25.023,0.906 31.996,7.574 31.996,15.773 C 31.996,23.973 25.023,30.641 16.449,30.641 z " />
    </g>
    <g
       id="g2788"
       style="fill:#11137e;fill-rule:evenodd;stroke:none;stroke-width:1pt;stroke-linecap:butt;stroke-linejoin:miter;stroke-dasharray:none"
       transform="matrix(1.290432,0,0,1.290432,335.4901,459.2252)">
      <path
         id="path2790"
         d="M 9.957,0 C 4.461,0 0,4.277 0,9.555 C 0,14.828 4.461,19.109 9.957,19.109 C 15.449,19.109 19.91,14.828 19.91,9.555 C 19.91,4.277 15.449,0 9.957,0 z M 6.058,4.875 C 5.129,5.996 4.019,6.609 3.574,6.242 C 3.129,5.875 3.523,4.668 4.449,3.547 C 5.375,2.426 6.488,1.812 6.929,2.18 C 7.375,2.547 6.984,3.75 6.058,4.875 z M 9.558,18.211 C 9.242,18.211 8.929,18.195 8.617,18.164 C 11.648,17.976 14.625,16.121 16.273,13.035 C 18.14,9.543 17.746,5.504 15.589,2.828 C 17.496,4.437 18.711,6.793 18.711,9.426 C 18.711,14.277 14.613,18.211 9.558,18.211 z " />
    </g>
    <g
       id="g2792"
       style="fill:#11137e;fill-rule:evenodd;stroke:none;stroke-width:1pt;stroke-linecap:butt;stroke-linejoin:miter;stroke-dasharray:none"
       transform="matrix(1.290432,0,0,1.290432,347.3208,357.4475)">
      <path
         id="path2794"
         d="M 12.066,2.125 C 11.488,2.191 4.218,0 4.218,0 C 2.461,0.004 0,2.515 0,2.515 C 0,2.515 3.535,0.89 3.535,0.89 C 5.484,0.867 11.492,4.015 11.492,4.015 C 12.796,3.457 12.582,1.457 12.582,1.457 C 12.582,1.457 12.066,2.125 12.066,2.125 z " />
    </g>
    <g
       id="g2796"
       style="fill:#11137e;fill-rule:evenodd;stroke:none;stroke-width:1pt;stroke-linecap:butt;stroke-linejoin:miter;stroke-dasharray:none"
       transform="matrix(1.290432,0,0,1.290432,349.2203,359.8271)">
      <path
         id="path2798"
         d="M 8.473,2.48 C 8.473,2.48 5.067,0 6.824,1.871 C 6.824,1.871 0.11,0.363 0,3.699 C 0,3.699 0.965,4.734 1.672,4.679 C 1.672,4.679 1.899,2.812 3.11,2.347 C 3.11,2.347 6.438,1.531 8.567,3.765 C 8.567,3.765 9.617,4.378 9.617,4.378 C 9.617,4.378 8.473,2.48 8.473,2.48 z " />
    </g>
    <g
       id="g2800"
       style="fill:#11137e;fill-rule:evenodd;stroke:none;stroke-width:1pt;stroke-linecap:butt;stroke-linejoin:miter;stroke-dasharray:none"
       transform="matrix(1.290432,0,0,1.290432,353.2684,362.3666)">
      <path
         id="path2802"
         d="M 1.555,0.071 C 0.676,0.137 0,0.727 0.047,1.391 C 0.094,2.047 0.848,2.528 1.73,2.457 C 2.613,2.391 3.289,1.797 3.238,1.137 C 3.191,0.477 2.441,0 1.555,0.071 z M 0.949,1.41 C 0.703,1.43 0.492,1.254 0.477,1.024 C 0.457,0.793 0.641,0.59 0.887,0.571 C 1.133,0.551 1.344,0.723 1.359,0.953 C 1.379,1.188 1.191,1.391 0.949,1.41 z " />
    </g>
    <g
       id="g2804"
       style="fill:#11137e;fill-rule:evenodd;stroke:none;stroke-width:1pt;stroke-linecap:butt;stroke-linejoin:miter;stroke-dasharray:none"
       transform="matrix(1.290432,0,0,1.290432,331.331,365.6585)">
      <path
         id="path2806"
         d="M 5.57,3.5 C 5.57,3.5 5.402,0 1.184,2.625 C 1.184,2.625 0,3.852 1.352,5.074 C 1.352,5.074 0.676,3.5 1.691,3.149 C 1.691,3.149 2.195,5.602 3.883,7 C 3.883,7 1.859,2.977 3.883,2.625 C 3.883,2.625 3.375,5.602 5.066,5.949 C 5.066,5.949 7.09,6.477 7.09,6.477 C 7.09,6.477 4.391,4.375 5.57,3.5 z " />
    </g>
    <g
       id="g2808"
       style="fill:#11137e;fill-rule:evenodd;stroke:none;stroke-width:1pt;stroke-linecap:butt;stroke-linejoin:miter;stroke-dasharray:none"
       transform="matrix(1.290432,0,0,1.290432,354.8311,365.4262)">
      <path
         id="path2810"
         d="M 0,1.27 C 0,1.27 3.316,1.887 4.25,0 C 4.25,0 4.648,0.028 4.648,0.028 C 4.648,0.028 3.754,2.438 1.644,2.954 C 1.644,2.954 2.777,2.223 2.668,1.528 C 2.668,1.528 1.805,2.008 0,1.27 z " />
    </g>
    <g
       id="g2812"
       style="fill:#11137e;fill-rule:evenodd;stroke:none;stroke-width:1pt;stroke-linecap:butt;stroke-linejoin:miter;stroke-dasharray:none"
       transform="matrix(1.290432,0,0,1.290432,352.6528,517.1991)">
      <path
         id="path2814"
         d="M 2.27,0.066 C 1.368,0.007 0.594,0 0,0.058 C 0,0.058 1.313,0.195 1.313,0.195 C 1.313,0.195 2.27,0.066 2.27,0.066 z " />
    </g>
    <g
       id="g2816"
       style="fill:#11137e;fill-rule:evenodd;stroke:none;stroke-width:1pt;stroke-linecap:butt;stroke-linejoin:miter;stroke-dasharray:none"
       transform="matrix(1.290432,0,0,1.290432,386.2092,486.7527)">
      <path
         id="path2818"
         d="M 0,0 C 3.403,3.851 7.028,13.594 7.028,13.594 C 6.121,5.215 0,0 0,0 z " />
    </g>
    <g
       id="g2820"
       style="fill:#11137e;fill-rule:evenodd;stroke:none;stroke-width:1pt;stroke-linecap:butt;stroke-linejoin:miter;stroke-dasharray:none"
       transform="matrix(1.290432,0,0,1.290432,315.6794,647.3005)">
      <path
         id="path2822"
         d="M 2.707,0 C 2.883,0.258 2.992,0.57 2.992,0.906 C 2.992,1.781 2.281,2.492 1.406,2.492 C 0.789,2.492 0.266,2.137 0,1.629 C 0.148,2.375 0.887,2.945 1.781,2.945 C 2.781,2.945 3.594,2.238 3.594,1.359 C 3.594,0.781 3.234,0.277 2.707,0 z " />
    </g>
    <g
       id="g2824"
       style="fill:#11137e;fill-rule:evenodd;stroke:none;stroke-width:1pt;stroke-linecap:butt;stroke-linejoin:miter;stroke-dasharray:none"
       transform="matrix(1.290432,0,0,1.290432,330.4897,663.2851)">
      <path
         id="path2826"
         d="M 2.707,0 C 2.886,0.258 2.992,0.566 2.992,0.906 C 2.992,1.781 2.285,2.488 1.41,2.488 C 0.793,2.488 0.265,2.136 0,1.625 C 0.148,2.371 0.89,2.941 1.785,2.941 C 2.785,2.941 3.597,2.234 3.597,1.355 C 3.597,0.781 3.238,0.277 2.707,0 z " />
    </g>
    <g
       id="g2828"
       style="fill:#11137e;fill-rule:evenodd;stroke:none;stroke-width:1pt;stroke-linecap:butt;stroke-linejoin:miter;stroke-dasharray:none"
       transform="matrix(1.290432,0,0,1.290432,342.1836,681.2143)">
      <path
         id="path2830"
         d="M 2.707,0 C 2.887,0.258 2.992,0.571 2.992,0.906 C 2.992,1.782 2.281,2.492 1.406,2.492 C 0.793,2.492 0.266,2.137 0,1.629 C 0.149,2.375 0.891,2.946 1.785,2.946 C 2.785,2.946 3.598,2.235 3.598,1.36 C 3.598,0.778 3.238,0.278 2.707,0 z " />
    </g>
    <g
       id="g2832"
       style="fill:#11137e;fill-rule:evenodd;stroke:none;stroke-width:1pt;stroke-linecap:butt;stroke-linejoin:miter;stroke-dasharray:none"
       transform="matrix(1.290432,0,0,1.290432,350.3752,699.8507)">
      <path
         id="path2834"
         d="M 2.703,0 C 2.883,0.238 2.988,0.531 2.988,0.847 C 2.988,1.668 2.277,2.336 1.402,2.336 C 0.785,2.336 0.261,2.004 0,1.523 C 0.144,2.222 0.887,2.761 1.777,2.761 C 2.781,2.761 3.59,2.093 3.59,1.273 C 3.59,0.73 3.234,0.257 2.703,0 z " />
    </g>
    <g
       id="g2836"
       style="fill:#11137e;fill-rule:evenodd;stroke:none;stroke-width:1pt;stroke-linecap:butt;stroke-linejoin:miter;stroke-dasharray:none"
       transform="matrix(1.290432,0,0,1.290432,386.6235,544.7873)">
      <path
         id="path2838"
         d="M 2.707,0 C 2.882,0.257 2.992,0.566 2.992,0.902 C 2.992,1.781 2.281,2.492 1.406,2.492 C 0.793,2.492 0.265,2.136 0,1.625 C 0.148,2.375 0.89,2.941 1.781,2.941 C 2.781,2.941 3.593,2.234 3.593,1.359 C 3.593,0.777 3.234,0.277 2.707,0 z " />
    </g>
    <g
       id="g2840"
       style="fill:#11137e;fill-rule:evenodd;stroke:none;stroke-width:1pt;stroke-linecap:butt;stroke-linejoin:miter;stroke-dasharray:none"
       transform="matrix(1.290432,0,0,1.290432,387.7926,580.2587)">
      <path
         id="path2842"
         d="M 2.707,0 C 2.883,0.258 2.992,0.566 2.992,0.902 C 2.992,1.781 2.277,2.488 1.406,2.488 C 0.789,2.488 0.265,2.137 0,1.625 C 0.148,2.375 0.887,2.945 1.781,2.945 C 2.781,2.945 3.594,2.234 3.594,1.355 C 3.594,0.777 3.238,0.277 2.707,0 z " />
    </g>
    <g
       id="g2844"
       style="fill:#11137e;fill-rule:evenodd;stroke:none;stroke-width:1pt;stroke-linecap:butt;stroke-linejoin:miter;stroke-dasharray:none"
       transform="matrix(1.290432,0,0,1.290432,387.4042,615.3365)">
      <path
         id="path2846"
         d="M 2.703,0 C 2.883,0.258 2.988,0.571 2.988,0.907 C 2.988,1.782 2.281,2.493 1.402,2.493 C 0.789,2.493 0.262,2.141 0,1.629 C 0.145,2.375 0.887,2.946 1.781,2.946 C 2.781,2.946 3.594,2.235 3.594,1.36 C 3.594,0.782 3.234,0.278 2.703,0 z " />
    </g>
    <g
       id="g2848"
       style="fill:#11137e;fill-rule:evenodd;stroke:none;stroke-width:1pt;stroke-linecap:butt;stroke-linejoin:miter;stroke-dasharray:none"
       transform="matrix(1.290432,0,0,1.290432,385.8466,650.0323)">
      <path
         id="path2850"
         d="M 2.703,0 C 2.883,0.258 2.988,0.567 2.988,0.903 C 2.988,1.778 2.277,2.492 1.402,2.492 C 0.785,2.492 0.262,2.137 0,1.625 C 0.145,2.375 0.883,2.942 1.781,2.942 C 2.781,2.942 3.59,2.235 3.59,1.36 C 3.59,0.778 3.231,0.278 2.703,0 z " />
    </g>
    <g
       id="g2852"
       style="fill:#11137e;fill-rule:evenodd;stroke:none;stroke-width:1pt;stroke-linecap:butt;stroke-linejoin:miter;stroke-dasharray:none"
       transform="matrix(1.290432,0,0,1.290432,382.7263,686.6741)">
      <path
         id="path2854"
         d="M 2.703,0 C 2.887,0.254 2.988,0.566 2.988,0.902 C 2.988,1.781 2.281,2.488 1.402,2.488 C 0.789,2.488 0.262,2.136 0,1.625 C 0.145,2.371 0.887,2.941 1.781,2.941 C 2.781,2.941 3.594,2.234 3.594,1.355 C 3.594,0.777 3.234,0.277 2.703,0 z " />
    </g>
    <g
       id="g2856"
       style="fill:#11137e;fill-rule:evenodd;stroke:none;stroke-width:1pt;stroke-linecap:butt;stroke-linejoin:miter;stroke-dasharray:none"
       transform="matrix(1.290432,0,0,1.290432,398.7961,697.1989)">
      <path
         id="path2858"
         d="M 1.692,0 C 1.801,0.254 1.867,0.566 1.867,0.902 C 1.867,1.777 1.426,2.488 0.875,2.488 C 0.496,2.488 0.164,2.137 0,1.625 C 0.094,2.371 0.555,2.941 1.114,2.941 C 1.742,2.941 2.246,2.23 2.246,1.355 C 2.246,0.777 2.024,0.273 1.692,0 z " />
    </g>
    <g
       id="g2860"
       style="fill:#11137e;fill-rule:evenodd;stroke:none;stroke-width:1pt;stroke-linecap:butt;stroke-linejoin:miter;stroke-dasharray:none"
       transform="matrix(1.290432,0,0,1.290432,407.371,681.9963)">
      <path
         id="path2862"
         d="M 1.691,0 C 1.801,0.254 1.871,0.566 1.871,0.906 C 1.871,1.781 1.426,2.488 0.879,2.488 C 0.496,2.488 0.164,2.136 0,1.625 C 0.093,2.371 0.554,2.941 1.113,2.941 C 1.738,2.941 2.25,2.23 2.25,1.355 C 2.25,0.777 2.023,0.277 1.691,0 z " />
    </g>
    <g
       id="g2864"
       style="fill:#11137e;fill-rule:evenodd;stroke:none;stroke-width:1pt;stroke-linecap:butt;stroke-linejoin:miter;stroke-dasharray:none"
       transform="matrix(1.290432,0,0,1.290432,416.3086,666.0117)">
      <path
         id="path2866"
         d="M 1.269,0 C 1.355,0.258 1.402,0.57 1.402,0.906 C 1.402,1.781 1.07,2.492 0.66,2.492 C 0.371,2.492 0.125,2.137 0,1.629 C 0.07,2.375 0.417,2.945 0.835,2.945 C 1.304,2.945 1.687,2.234 1.687,1.359 C 1.687,0.781 1.519,0.277 1.269,0 z " />
    </g>
    <g
       id="g2868"
       style="fill:#11137e;fill-rule:evenodd;stroke:none;stroke-width:1pt;stroke-linecap:butt;stroke-linejoin:miter;stroke-dasharray:none"
       transform="matrix(1.290432,0,0,1.290432,421.7671,650.0323)">
      <path
         id="path2870"
         d="M 1.27,0 C 1.352,0.258 1.402,0.567 1.402,0.903 C 1.402,1.778 1.07,2.492 0.66,2.492 C 0.371,2.492 0.125,2.137 0,1.625 C 0.07,2.375 0.414,2.942 0.836,2.942 C 1.305,2.942 1.684,2.235 1.684,1.36 C 1.684,0.778 1.516,0.278 1.27,0 z " />
    </g>
    <g
       id="g2872"
       style="fill:#11137e;fill-rule:evenodd;stroke:none;stroke-width:1pt;stroke-linecap:butt;stroke-linejoin:miter;stroke-dasharray:none"
       transform="matrix(1.290432,0,0,1.290432,341.5229,715.5269)">
      <path
         id="path2874"
         d="M 0,0 C 0,0 0.329,2.504 0.329,2.504 C 0.364,1.613 0.325,0.559 0,0 z " />
    </g>
    <g
       id="g2876"
       style="fill:#11137e;fill-rule:evenodd;stroke:none;stroke-width:1pt;stroke-linecap:butt;stroke-linejoin:miter;stroke-dasharray:none"
       transform="matrix(1.290432,0,0,1.290432,341.9061,718.7581)">
      <path
         id="path2878"
         d="M 0.032,0 C 0.024,0.215 0.012,0.426 0,0.613 C 0.035,0.609 0.074,0.605 0.11,0.598 C 0.11,0.598 0.032,0 0.032,0 z " />
    </g>
    <g
       id="g2880"
       style="fill:#11137e;fill-rule:evenodd;stroke:none;stroke-width:1pt;stroke-linecap:butt;stroke-linejoin:miter;stroke-dasharray:none"
       transform="matrix(1.290432,0,0,1.290432,282.1385,647.0592)">
      <path
         id="path2882"
         d="M 3.926,3.019 C 3.926,3.019 2.719,0 2.719,0 C 2.719,0 0,2.113 3.926,3.019 z " />
    </g>
    <g
       id="g2884"
       style="fill:#11137e;fill-rule:evenodd;stroke:none;stroke-width:1pt;stroke-linecap:butt;stroke-linejoin:miter;stroke-dasharray:none"
       transform="matrix(1.290432,0,0,1.290432,340.5705,362.0595)">
      <path
         id="path2886"
         d="M 0.051,0 C 0.035,0.016 0.02,0.035 0,0.055 C 0.024,0.09 0.043,0.125 0.067,0.16 C 0.067,0.16 0.059,0.094 0.051,0 z " />
    </g>
    <g
       id="g2888"
       style="fill:#11137e;fill-rule:evenodd;stroke:none;stroke-width:1pt;stroke-linecap:butt;stroke-linejoin:miter;stroke-dasharray:none"
       transform="matrix(1.290432,0,0,1.290432,343.6663,358.7534)">
      <path
         id="path2890"
         d="M 0.086,0.23 C 0.086,0.23 0.078,0.148 0.07,0 C 0.046,0.019 0.023,0.046 0,0.07 C 0.031,0.121 0.054,0.179 0.086,0.23 z " />
    </g>
    <g
       id="g2892"
       style="fill:#11137e;fill-rule:evenodd;stroke:none;stroke-width:1pt;stroke-linecap:butt;stroke-linejoin:miter;stroke-dasharray:none"
       transform="matrix(1.290432,0,0,1.290432,338.7458,374.898)">
      <path
         id="path2894"
         d="M 1.133,0.453 C 1.133,0.703 0.879,0.907 0.566,0.907 C 0.254,0.907 0,0.703 0,0.453 C 0,0.203 0.254,0 0.566,0 C 0.879,0 1.133,0.203 1.133,0.453 z " />
    </g>
    <g
       id="g2896"
       style="fill:#11137e;fill-rule:evenodd;stroke:none;stroke-width:1pt;stroke-linecap:butt;stroke-linejoin:miter;stroke-dasharray:none"
       transform="matrix(1.290432,0,0,1.290432,240.4317,340.2177)">
      <path
         id="path2898"
         d="M 206.988,288 C 204.937,280.406 145.281,281.18 134.046,281.391 C 134.046,281.391 134.496,277.125 134.496,277.125 C 135.628,276.899 137.441,276.219 137.441,276.219 C 137.441,276.219 138.914,265.332 138.914,265.332 C 142.742,256.953 144.086,251.074 144.086,251.074 C 145.921,244.938 145.691,237.149 145.343,232.75 C 148.652,208.457 149.246,186.59 148.863,169.684 C 151.726,193.532 148.316,217.239 148.316,217.239 C 164.929,250.469 165.226,243.824 165.226,243.824 C 167.949,200.93 151.031,127.528 151.031,127.528 C 147.781,120.879 145.257,121.028 143.523,122.91 C 141.535,116.504 138.769,109.153 136.015,102.305 C 135.777,99.817 135.175,98.039 135.175,98.039 C 134.527,94.481 132.156,91.395 130.847,89.914 C 128.027,83.375 125.96,78.895 125.96,78.895 C 124.843,77.254 122.433,75.949 119.441,74.906 C 119.441,74.906 119.957,73.446 119.957,73.446 C 120.714,73.719 121.351,73.797 121.351,73.797 C 122.488,74.364 123.507,72.664 123.507,72.664 C 124.64,72.438 124.296,70.739 124.296,70.739 C 124.187,70.399 124.867,70.399 124.867,70.399 C 126.339,69.492 125.543,67.906 125.543,67.906 C 125.433,67.453 126,67.114 126,67.114 C 127.132,66.547 126.679,65.301 126.679,65.301 C 126.679,64.813 124.48,62.801 123.882,62.266 C 123.882,62.266 124.609,60.203 124.609,60.203 C 124.609,60.203 124.867,59.637 124.867,59.637 C 124.867,59.637 127.132,58.278 127.132,58.278 C 124.527,54.766 121.468,55.899 121.468,55.899 C 121.468,55.899 121.687,58.625 121.687,58.625 C 121.687,58.625 120.671,61.223 120.671,61.223 C 120.671,61.223 119.769,60.883 119.769,60.883 C 116.824,58.731 116.144,63.149 116.144,63.149 C 116.144,63.828 114.898,64.735 114.898,64.735 C 115.125,65.641 116.484,64.961 116.484,64.961 C 116.484,65.528 117.277,65.867 117.277,65.867 C 116.031,66.207 116.593,68.246 116.593,68.246 C 115.812,68.403 115.179,68.703 114.718,68.985 C 114.101,68.121 109.269,61.313 108.14,58.203 C 108.14,58.203 104.062,46.422 100.738,46.27 C 100.738,46.27 98.023,45.668 96.964,46.574 C 96.964,46.574 91.976,46.121 91.976,44.008 C 91.976,44.008 91.812,42.184 91.695,40.184 C 91.691,40.184 91.687,40.18 91.679,40.18 C 91.679,40.18 91.636,38.797 91.636,38.797 C 91.636,38.797 91.347,38.629 91.347,38.629 C 94.281,39.481 96.214,39.371 96.214,39.371 C 96.214,39.371 97.496,38.36 97.496,38.36 C 98.793,37.656 104.398,34.024 107.07,22.692 C 107.07,22.692 107.324,19.891 106.398,16.828 C 106.398,16.828 106.609,14.41 106.851,12.672 C 107.253,13.364 107.918,14.469 108.367,15.051 C 108.367,15.051 108.21,11.625 107.269,8.239 C 108.386,9.762 109.347,11.383 109.347,11.383 C 108.757,8.84 107.421,6.828 106.285,5.481 C 105.531,3.844 104.515,2.489 103.132,1.926 C 103.132,1.926 94.859,0 91.656,1.403 C 91.656,1.403 83.046,0.703 75.449,8.051 C 75.449,8.051 73.086,12.774 73.425,14.524 C 73.425,14.524 68.699,12.949 66.503,15.051 C 66.503,15.051 62.96,21.172 63.972,23.098 C 63.972,23.098 66.168,31.321 67.011,32.899 C 67.011,32.899 69.207,40.594 66.671,42.344 C 66.671,42.344 60.765,44.969 62.453,39.543 C 62.453,39.543 63.804,37.797 64.816,39.02 C 64.816,39.02 64.816,37.27 62.453,36.922 C 62.453,36.922 55.531,41.297 60.765,43.571 C 60.765,43.571 63.578,46.617 72.597,45.942 C 71.488,47.598 69.839,50.324 68.086,54.164 C 68.086,54.164 67.664,52.465 67.664,52.465 C 63.281,52.313 62.074,56.543 62.074,56.543 C 62.074,56.543 65.093,58.203 65.093,58.203 C 65.093,58.203 65.746,59.219 65.746,59.219 C 64.609,64.762 59.859,72.282 58.507,74.344 C 54.355,75.055 50.777,76.035 49.234,77.387 C 49.234,77.387 47.718,80.481 47.718,80.481 C 46.609,80.43 46.367,81.614 46.367,81.614 C 46.367,81.614 46.691,82.582 46.691,82.582 C 46.691,82.582 43.484,89.117 43.484,89.117 C 41.836,88.918 41.476,90.289 41.476,90.289 C 41.476,90.289 42.07,91.735 42.07,91.735 C 42.07,91.735 42.23,91.504 42.23,91.504 C 42.203,91.602 42.187,91.699 42.168,91.805 C 42.168,91.805 41.871,92.41 41.871,92.41 C 41.871,92.41 41.082,91.883 41.082,91.883 C 41.082,91.883 37.152,100.039 37.457,101.852 C 37.457,101.852 37.5,101.809 37.5,101.809 C 37.191,105.418 37.843,111.934 38.019,113.555 C 38.019,113.555 37.82,113.723 37.82,113.723 C 37.136,111.746 36.32,109.969 35.339,108.496 C 35.339,108.496 35.644,105.477 33.226,110.309 C 33.226,110.309 7.851,162.567 3.925,211.199 C 3.925,211.199 0,231.438 3.625,229.324 C 3.625,229.324 26.402,212.899 36.945,171.774 C 35.32,185.981 24.769,207.875 24.769,207.875 C 29.093,223.809 34.617,236.992 37.078,242.528 C 37.933,249.086 40.777,256.207 40.777,256.207 C 40.777,256.207 47.378,260.961 47.378,260.961 C 47.378,260.961 47.878,264.664 47.878,264.664 C 47.878,264.664 49.539,264.817 49.539,264.817 C 49.539,264.817 53.011,277.051 53.011,277.051 C 53.011,277.051 54.066,277.555 55.789,277.797 C 55.789,277.797 57.226,284.739 57.226,284.739 C 56.382,285.008 54.972,285.508 54.972,285.508 C 54.972,285.508 54.82,286.989 54.82,286.989 C 54.82,286.989 53.011,287.469 53.011,287.469 C 53.011,287.469 52.64,292.778 52.64,292.778 C 52.64,292.778 37.757,305.215 37.757,305.215 C 35.945,306.352 36.625,306.801 36.625,306.801 C 46.14,308.391 67.89,319.715 67.89,319.715 C 75.593,314.508 96.66,303.633 96.66,303.633 C 96.66,303.633 93.484,302.024 93.484,302.024 C 93.484,302.024 118.843,301.598 118.843,301.598 C 118.843,301.598 127.019,307.938 127.019,307.938 C 131.171,306.949 157.601,305.094 164.242,304.641 C 167.484,305.227 164.625,303.18 164.625,303.18 C 164.156,302.883 163.703,302.598 163.25,302.313 C 163.25,302.313 161.707,299.461 161.707,299.461 C 207.199,295.699 206.988,288 206.988,288 z M 11.476,189.754 C 11.476,189.754 12.386,154.715 34.738,111.516 C 34.738,111.516 35.644,115.746 35.644,115.746 C 35.644,115.746 19.031,141.422 11.476,189.754 z M 36.539,236.383 C 36.062,236.383 35.668,235.813 35.593,235.067 C 35.73,235.578 36.011,235.93 36.339,235.93 C 36.808,235.93 37.183,235.219 37.183,234.344 C 37.183,234.008 37.128,233.699 37.031,233.442 C 37.316,233.715 37.507,234.219 37.507,234.797 C 37.507,235.672 37.074,236.383 36.539,236.383 z M 125.398,285.11 C 124.472,285.313 123.554,285.504 122.644,285.68 C 135.156,271.199 144.086,244.426 144.086,244.426 C 140.898,263.785 129.562,279.766 125.398,285.11 z M 130.871,285.735 C 130.871,285.735 130.871,288.227 130.871,288.227 C 128.378,290.039 121.351,290.266 121.351,290.266 C 122.714,290.266 130.871,285.735 130.871,285.735 z M 134.468,99.489 C 135.652,104.602 135.25,109.059 133.57,109.446 C 133.086,109.559 132.543,109.305 131.988,108.774 C 132.023,108.77 132.066,108.774 132.097,108.766 C 133.777,108.379 134.179,103.922 132.996,98.809 C 132.16,95.188 130.753,92.219 129.41,90.926 C 131.074,90.727 133.316,94.489 134.468,99.489 z M 123.023,88.543 C 123.023,88.543 129.058,89.883 129.058,89.883 C 129.035,89.887 129.023,89.895 129.003,89.899 C 128.636,89.824 128.277,89.821 127.933,89.914 C 125.48,90.617 124.808,95.785 126.429,101.461 C 127.839,106.383 130.511,110.067 132.796,110.496 C 132.796,110.496 130.445,114.258 130.445,114.258 C 130.187,114.192 129.925,114.094 129.648,113.946 C 127.128,112.574 124.371,108.051 122.789,102.688 C 121.929,99.774 121.496,96.895 121.496,94.469 C 121.496,92.125 121.902,90.203 122.707,89.086 C 122.734,89.039 122.906,88.746 123.023,88.543 z M 128.832,94.867 C 128.832,95.992 128.425,96.906 127.925,96.906 C 127.421,96.906 127.019,95.992 127.019,94.867 C 127.019,93.739 127.421,92.828 127.925,92.828 C 128.425,92.828 128.832,93.739 128.832,94.867 z M 121.07,88.11 C 121.07,88.11 122.132,88.344 122.132,88.344 C 122.132,88.344 121.953,88.645 121.953,88.645 C 120.175,91.094 120.156,96.867 121.949,102.938 C 123.617,108.594 126.906,113.328 129.964,115.028 C 130.105,115.11 129.753,115.364 129.468,115.582 C 124.054,113.778 121.101,105.653 121.101,105.653 C 117.324,95.004 119.746,89.903 121.07,88.11 z M 132.23,131.906 C 132.23,131.906 121.351,129.414 121.351,129.414 C 121.351,129.414 87.183,135.809 87.183,135.809 C 92.21,126.489 109.609,114.153 112.539,112.121 C 116.039,114.438 128.539,123.168 132.23,131.906 z M 49.804,98.492 C 50.265,98.77 50.582,99.27 50.582,99.852 C 50.582,100.727 49.871,101.438 48.996,101.438 C 48.214,101.438 47.566,100.867 47.437,100.117 C 47.668,100.629 48.128,100.985 48.664,100.985 C 49.433,100.985 50.054,100.274 50.054,99.399 C 50.054,99.059 49.96,98.75 49.804,98.492 z M 51.105,147.953 C 51.984,147.953 52.695,147.242 52.695,146.367 C 52.695,146.032 52.589,145.719 52.406,145.461 C 52.941,145.739 53.296,146.242 53.296,146.821 C 53.296,147.696 52.488,148.406 51.484,148.406 C 50.589,148.406 49.851,147.836 49.707,147.09 C 49.968,147.602 50.492,147.953 51.105,147.953 z M 53.464,113.446 C 53.996,113.723 54.355,114.223 54.355,114.801 C 54.355,115.676 53.543,116.387 52.543,116.387 C 51.648,116.387 50.906,115.817 50.761,115.071 C 51.023,115.582 51.55,115.934 52.164,115.934 C 53.039,115.934 53.753,115.223 53.753,114.348 C 53.753,114.012 53.644,113.699 53.464,113.446 z M 52.121,132.137 C 52.382,132.649 52.91,133 53.527,133 C 54.402,133 55.113,132.293 55.113,131.414 C 55.113,131.078 55.003,130.766 54.828,130.512 C 55.355,130.789 55.714,131.289 55.714,131.867 C 55.714,132.742 54.902,133.453 53.902,133.453 C 53.007,133.453 52.269,132.883 52.121,132.137 z M 51.082,128.5 C 51.078,128.293 51.07,128.074 51.066,127.864 C 53.242,128.16 69.492,130.422 72.875,131.832 C 72.875,131.832 74.609,116.727 74.609,116.727 C 68.265,114.313 63.734,107.711 63.734,100.946 C 63.734,92.867 69.656,86.121 77.566,84.442 C 77.566,84.442 78.839,73.457 78.839,73.457 C 78.839,73.457 78.839,73.039 78.839,73.039 C 79.117,73.02 79.386,73 79.664,72.981 C 79.664,72.981 78.46,84.106 78.46,84.106 C 79.168,84.024 80.675,84.032 81.406,84.032 C 91.164,84.032 99.078,91.602 99.078,100.946 C 99.078,110.285 91.164,117.86 81.406,117.86 C 79.261,117.86 77.214,117.477 75.316,116.809 C 75.316,116.809 74.007,133.571 74.007,133.571 C 69.707,131.422 54.312,128.844 51.082,128.5 z M 62.222,125.625 C 62.664,125.856 62.964,126.27 62.964,126.754 C 62.964,127.481 62.289,128.071 61.457,128.071 C 60.71,128.071 60.097,127.598 59.972,126.977 C 60.191,127.403 60.632,127.696 61.144,127.696 C 61.871,127.696 62.464,127.106 62.464,126.375 C 62.464,126.094 62.375,125.836 62.222,125.625 z M 72.043,117.617 C 72.484,117.848 72.781,118.266 72.781,118.746 C 72.781,119.477 72.105,120.067 71.273,120.067 C 70.531,120.067 69.91,119.594 69.789,118.969 C 70.011,119.399 70.449,119.692 70.96,119.692 C 71.691,119.692 72.281,119.102 72.281,118.371 C 72.281,118.09 72.191,117.832 72.043,117.617 z M 70.355,129.301 C 71.086,129.301 71.675,128.711 71.675,127.981 C 71.675,127.703 71.586,127.446 71.437,127.231 C 71.878,127.461 72.179,127.875 72.179,128.36 C 72.179,129.086 71.503,129.68 70.668,129.68 C 69.921,129.68 69.308,129.203 69.187,128.582 C 69.406,129.008 69.843,129.301 70.355,129.301 z M 69.324,66.965 C 68.293,65.934 68.906,64.793 69.113,64.481 C 69.113,64.481 69.636,65.297 69.636,65.297 C 69.632,65.297 69.625,65.301 69.625,65.301 C 69.687,65.453 69.769,65.559 69.855,65.641 C 69.855,65.641 69.929,65.754 69.929,65.754 C 69.929,65.754 69.957,65.711 69.957,65.711 C 71.152,66.481 73.855,62.434 73.855,62.434 C 76.421,60.469 75.515,64.395 75.515,64.395 C 77.179,64.094 76.121,66.36 76.121,66.36 C 77.632,66.66 76.574,68.625 76.574,68.625 C 76.574,68.625 77.027,69.684 77.027,69.684 C 76.574,71.192 73.402,71.496 73.402,71.496 C 73.402,71.496 71.293,72.336 71.293,72.336 C 69.031,72.617 66.953,72.93 65.046,73.258 C 65.046,73.258 65.398,73.156 65.398,73.156 C 65.398,73.156 70.531,68.324 70.531,68.324 C 70.531,68.324 69.324,66.965 69.324,66.965 z M 78.316,71.621 C 77.933,71.649 77.578,71.688 77.207,71.719 C 77.207,71.719 77.929,70.938 77.929,70.938 C 77.929,70.938 78.316,71.621 78.316,71.621 z M 78.082,64.547 C 78.089,64.524 78.093,64.5 78.097,64.477 C 78.125,64.524 78.156,64.571 78.179,64.617 C 78.125,64.567 78.082,64.547 78.082,64.547 z M 77.464,74.586 C 77.464,75.184 76.789,75.664 75.957,75.664 C 75.21,75.664 74.593,75.278 74.472,74.77 C 74.691,75.117 75.132,75.356 75.644,75.356 C 76.371,75.356 76.96,74.875 76.96,74.282 C 76.96,74.051 76.875,73.84 76.722,73.668 C 77.164,73.856 77.464,74.196 77.464,74.586 z M 75.968,80.918 C 76.41,81.117 76.707,81.485 76.707,81.906 C 76.707,82.547 76.035,83.067 75.199,83.067 C 74.457,83.067 73.843,82.649 73.718,82.106 C 73.937,82.477 74.378,82.735 74.886,82.735 C 75.617,82.735 76.207,82.215 76.207,81.578 C 76.207,81.332 76.117,81.106 75.968,80.918 z M 78.687,67.114 C 78.742,66.282 78.675,65.719 78.57,65.332 C 79.718,67.68 80.062,70.324 80.16,71.489 C 79.972,71.504 79.785,71.516 79.601,71.528 C 79.503,71.032 79.175,70.453 78.89,70.02 C 79.5,69.199 78.687,67.114 78.687,67.114 z M 88.05,69.532 C 88.05,69.532 88.05,71.11 88.05,71.11 C 87.644,71.121 87.242,71.133 86.843,71.145 C 86.843,71.145 86.843,69.379 86.843,69.379 C 86.843,69.379 85.183,69.532 85.183,69.532 C 85.183,69.532 85.265,71.203 85.265,71.203 C 84.148,71.246 83.066,71.305 82.003,71.367 C 82.003,71.367 81.406,69.078 81.406,69.078 C 84.671,63.785 89.613,67.727 91.914,70.074 C 91.914,70.074 92.019,71.043 92.019,71.043 C 91.293,71.047 90.57,71.055 89.863,71.067 C 89.863,71.067 89.863,69.532 89.863,69.532 C 89.863,69.532 88.05,69.532 88.05,69.532 z M 98.039,71.188 C 98.039,71.188 98.168,67.871 98.168,67.871 C 98.168,67.871 99.531,67.871 99.531,67.871 C 99.531,67.871 99.46,71.301 99.46,71.301 C 98.937,71.258 98.468,71.223 98.039,71.188 z M 86.535,137.16 C 86.535,137.16 86.964,137.207 86.964,137.207 C 87.558,137.149 88.332,137.156 89.234,137.215 C 89.234,137.215 120.218,133.039 120.218,133.039 C 120.218,133.039 114.332,141.875 114.332,141.875 C 114.332,141.875 96.918,137.711 89.234,137.215 C 89.234,137.215 88.277,137.344 88.277,137.344 C 88.277,137.344 86.964,137.207 86.964,137.207 C 86.785,137.223 86.628,137.25 86.484,137.278 C 86.5,137.239 86.519,137.203 86.535,137.16 z M 121.554,133.078 C 121.554,133.078 128.601,133.266 128.601,133.266 C 128.601,133.266 115.746,141.024 115.746,141.024 C 117.507,139.035 120.418,134.77 121.554,133.078 z M 104.21,75.176 C 104.652,75.367 104.953,75.703 104.953,76.098 C 104.953,76.696 104.277,77.172 103.441,77.172 C 102.699,77.172 102.086,76.785 101.96,76.282 C 102.183,76.629 102.621,76.867 103.128,76.867 C 103.859,76.867 104.449,76.387 104.449,75.789 C 104.449,75.563 104.359,75.352 104.21,75.176 z M 108.14,89.375 C 108.578,89.606 108.878,90.024 108.878,90.504 C 108.878,91.235 108.203,91.824 107.371,91.824 C 106.625,91.824 106.011,91.352 105.89,90.727 C 106.105,91.153 106.543,91.449 107.058,91.449 C 107.785,91.449 108.375,90.856 108.375,90.129 C 108.375,89.848 108.289,89.59 108.14,89.375 z M 111.16,106.141 C 111.601,106.371 111.898,106.785 111.898,107.27 C 111.898,107.996 111.222,108.59 110.39,108.59 C 109.648,108.59 109.031,108.114 108.906,107.492 C 109.128,107.918 109.566,108.211 110.078,108.211 C 110.804,108.211 111.398,107.621 111.398,106.891 C 111.398,106.614 111.308,106.352 111.16,106.141 z M 107.836,66.813 C 107.836,66.813 109.195,65.906 110.253,66.965 C 110.253,66.965 110.125,72.039 110.125,72.039 C 110.125,72.039 109.96,72.614 109.96,72.614 C 109.199,72.485 108.445,72.364 107.699,72.25 C 107.699,72.25 107.836,66.813 107.836,66.813 z M 113.851,111.512 C 113.597,111.324 113.332,111.137 113.07,110.949 C 113.878,100.192 105.722,73.762 105.722,73.762 C 106.011,73.774 106.285,73.801 106.57,73.821 C 112.773,95.235 113.71,108.117 113.851,111.512 z M 102.851,61.223 C 102.851,61.223 106.328,69.231 106.328,69.231 C 106.328,69.231 106.328,72.059 106.328,72.059 C 104.503,71.809 102.789,71.617 101.285,71.469 C 100.793,70.09 99.679,66.485 100.89,65.153 C 100.89,65.153 102.703,63.34 102.851,61.223 z M 96.964,49.895 C 96.964,49.895 96.507,54.578 100.89,59.11 C 100.89,59.11 102.386,63.012 98.21,65.578 C 97.093,65.68 96.207,65.301 96.207,65.301 C 93.187,64.395 87.902,64.848 87.902,64.848 C 80.046,65.453 78.988,60.469 78.988,59.41 C 78.988,58.356 82.16,53.52 82.16,53.52 C 82.957,50.446 81.867,47.715 81.281,46.559 C 81.664,46.598 82.058,46.614 82.453,46.598 C 83.488,48.176 84.125,54.125 84.125,54.125 C 88.05,55.938 95.906,54.426 95.906,54.426 C 95.906,54.426 95,49.254 95,49.254 C 95.671,49.36 96.363,49.551 96.964,49.895 z M 78.32,39.543 C 78.32,39.543 78.468,32.789 76.316,29.196 C 77.339,29.242 77.812,29.047 77.812,29.047 C 77.812,29.047 78.32,29.922 78.32,29.922 C 80.722,32.653 83.152,34.594 85.41,35.977 C 85.527,36.516 85.668,37.211 85.75,37.758 C 85.765,38.024 85.777,38.285 85.789,38.551 C 85.785,38.555 85.785,38.563 85.785,38.571 C 85.785,38.571 85.789,38.567 85.789,38.567 C 85.894,41.379 85.597,44.114 84.199,44.91 C 84.199,44.91 81.933,46.043 80.574,45.364 C 80.574,45.364 79.144,44.457 76.683,44.114 C 77.789,43.106 78.703,41.617 78.32,39.543 z M 91.675,49.293 C 91.675,49.293 92.718,49.094 94.007,49.153 C 94.418,50.645 94.695,53.219 94.695,53.219 C 89.41,55.785 85.031,52.918 85.031,52.918 C 84.91,51.852 83.773,48.094 83.285,46.524 C 84.332,46.364 85.359,45.957 86.238,45.137 C 86.238,45.137 86.82,41.192 86.816,38.348 C 87.109,38.297 87.902,38.36 88.722,40.078 C 88.722,40.078 88.957,48.235 88.957,48.235 C 88.957,48.235 88.808,50.047 91.675,49.293 z M 105.445,19.215 C 103.796,21.352 100.25,20.242 100.25,20.242 C 99.953,19.489 100.859,18.66 100.859,18.66 C 100.878,18.649 100.894,18.641 100.914,18.633 C 100.968,19.196 101.582,19.641 102.339,19.641 C 103.132,19.641 103.773,19.153 103.773,18.555 C 103.773,18.172 103.515,17.84 103.125,17.645 C 105.539,17.039 105.445,19.215 105.445,19.215 z M 103.957,7.028 C 104.089,6.989 104.23,6.981 104.371,6.985 C 104.863,6.973 105.359,7.258 105.769,7.75 C 105.785,7.766 105.796,7.782 105.812,7.797 C 105.855,7.856 105.902,7.91 105.945,7.973 C 106.062,8.133 106.171,8.297 106.265,8.485 C 106.265,8.485 106.238,8.328 106.238,8.328 C 106.609,8.992 106.898,9.797 106.734,10.903 C 106.734,10.903 106.714,10.809 106.714,10.809 C 106.617,11.735 106.175,12.469 105.492,12.668 C 104.46,12.969 103.281,11.953 102.855,10.395 C 102.429,8.84 102.921,7.332 103.957,7.028 z M 101.105,8.438 C 101.515,8.418 101.941,8.356 102.367,8.278 C 102.003,9.114 102.218,10.199 102.218,10.199 C 102.218,10.199 101.414,10.75 101.414,10.75 C 100.757,10.035 100.933,9.004 101.105,8.438 z M 100.437,8.535 C 100.437,8.535 100.054,11.285 101.968,12.824 C 101.968,12.824 99.16,11.367 100.437,8.535 z M 94.468,6.934 C 94.617,7.032 94.753,7.145 94.878,7.27 C 94.878,7.27 94.882,7.27 94.882,7.274 C 95.425,7.805 95.765,8.547 95.765,9.367 C 95.765,10.985 94.46,12.297 92.851,12.297 C 92.843,12.297 92.839,12.297 92.832,12.297 C 92.82,12.297 92.812,12.301 92.8,12.301 C 92.742,12.301 92.687,12.285 92.628,12.282 C 92.554,12.278 92.476,12.274 92.402,12.262 C 90.964,12.063 89.855,10.844 89.855,9.356 C 89.855,7.727 91.171,6.41 92.8,6.41 C 93.421,6.41 93.996,6.606 94.468,6.934 z M 88.183,9.055 C 88.183,9.055 87.546,9.285 87.546,9.285 C 87.546,9.285 87.929,7.805 89.89,7.18 C 89.89,7.18 87.8,10.067 90.332,11.942 C 90.332,11.942 89.64,12.953 89.64,12.953 C 89.64,12.953 88.246,12.719 87.546,11.082 C 87.546,11.082 88.433,10.614 88.433,10.614 C 88.433,10.614 88.183,9.055 88.183,9.055 z M 88.355,3.071 C 88.609,2.77 88.855,2.637 88.855,2.637 C 88.761,3.848 89.23,3.567 89.23,3.567 C 89.695,2.078 90.441,1.985 90.441,1.985 C 92.023,2.918 92.582,5.43 92.582,5.43 C 91.746,3.754 90.07,2.453 90.07,2.453 C 89.441,3.551 89.671,5.703 89.761,6.352 C 89.757,6.356 89.75,6.356 89.746,6.36 C 89.507,5.235 88.761,4.313 88.761,4.313 C 88.402,4.918 88.546,6.137 88.695,6.926 C 88.632,6.969 88.574,7.016 88.511,7.063 C 87.586,5.371 87.699,4.242 88.043,3.551 C 87.293,4.489 85.832,6.5 85.671,8.098 C 85.671,8.098 85.156,4.11 88.355,3.071 z M 76.949,7.758 C 76.273,8.664 76.273,10.93 76.273,10.93 C 76.722,8.891 79.894,5.719 79.894,5.719 C 79.894,5.719 79.968,7.532 79.968,7.532 C 81.101,4.285 86.543,2.852 86.543,2.852 C 78.535,5.266 79.367,13.875 79.367,13.875 C 78.156,11.91 78.988,7.985 78.988,7.985 C 76.273,10.477 76.949,16.367 76.949,16.367 C 75.742,14.629 76.043,12.141 76.043,12.141 C 75.593,12.742 75.363,14.555 75.363,14.555 C 74.91,9.571 76.949,7.758 76.949,7.758 z M 84.441,9.094 C 84.3,9.731 84.148,10.391 83.996,10.981 C 83.601,11.262 83.148,11.606 82.644,12.02 C 82.906,11.387 83.171,10.895 83.441,10.617 C 83.441,10.617 83.925,9.832 84.378,8.899 C 84.378,8.899 84.441,9.094 84.441,9.094 z M 75.957,19.949 C 75.957,19.949 76.968,23.274 78.152,24.149 C 78.152,24.149 78.054,20.836 78.3,18.239 C 78.48,18.016 78.671,17.778 78.882,17.524 C 79.183,19.352 79.714,22.328 80.066,22.692 C 80.066,22.692 80.82,18.074 81.824,14.492 C 83.187,13.301 84.781,12.184 86.535,11.465 C 86.535,11.465 87.632,14.09 91.429,14.266 C 91.429,14.266 94.382,14.703 96.074,12.078 C 96.074,12.078 98.996,12 100.511,12.453 C 100.539,12.559 100.566,12.66 100.601,12.774 C 100.601,12.774 97.562,15.223 98.578,18.723 C 98.578,18.723 100.265,23.274 100.265,23.274 C 100.265,23.274 101.613,23.973 101.613,23.973 C 101.613,23.973 100.742,24.789 100.234,25.141 C 100.234,25.141 100.203,25.137 100.152,25.137 C 100.148,25.176 100.128,25.207 100.121,25.246 C 100.121,25.246 99.25,25.664 99.25,25.664 C 99.25,25.664 96.886,25.606 95.988,26.481 C 95.988,26.481 98.351,26.832 98.125,27.414 C 98.125,27.414 98.273,27.653 98.429,27.844 C 98.535,28.414 98.96,28.899 99.316,29.219 C 99.316,29.219 99.586,29.633 99.586,29.633 C 99.586,29.633 98.914,30.098 98.914,30.098 C 98.914,30.098 97.871,29.426 97.871,29.426 C 97.871,29.426 94.664,29.426 91.878,31.176 C 91.878,31.176 90.105,30.739 90.105,30.739 C 90.105,30.739 90.953,31.875 92.468,31.703 C 92.468,31.703 96.043,30.973 97.222,31.321 C 97.222,31.321 98.718,31.614 98.718,31.614 C 98.718,31.614 99.418,31.321 99.418,31.321 C 99.418,31.321 100.234,32.489 99.73,32.84 C 99.73,32.84 95.281,33.512 95.281,33.512 C 95.281,33.512 93.398,33.016 93.398,33.016 C 93.398,33.016 94.691,34.297 94.691,34.297 C 94.691,34.297 98.07,34.121 98.578,34.821 C 98.578,34.821 97.722,37.457 96.152,38.035 C 95.136,38.149 94.019,37.973 94.019,37.973 C 82.371,34.996 78.152,27.297 78.152,27.297 C 77.98,29.223 74.945,28.172 74.945,28.172 C 74.945,28.172 74.726,28.094 74.726,28.094 C 73.109,27.199 70.574,25.594 70.218,23.621 C 70.218,23.621 70.554,18.723 75.957,19.949 z M 69.144,43.918 C 66.972,44.11 64.718,43.551 64.718,43.551 C 74.46,44.91 68.117,28.375 68.117,28.375 C 66.757,26.11 65.847,22.258 65.847,22.258 C 65.847,13.196 72.875,16.821 72.875,16.821 C 63.132,15.461 68.117,25.656 68.117,25.656 C 73.324,34.266 73.097,40.61 73.097,40.61 C 73.07,41.254 72.902,41.778 72.644,42.203 C 73.281,38.711 70.836,33.813 70.836,33.813 C 72.828,40.199 70.996,42.832 69.144,43.918 z M 77.179,45.364 C 77.179,45.364 78.527,46.063 80.304,46.414 C 82.492,50.262 81.101,53.067 81.101,53.067 C 81.101,53.067 79.21,55.457 79.21,55.457 C 76.82,52.055 73.703,54.731 73.703,54.731 C 73.703,54.731 75.214,55.032 75.214,55.032 C 75.214,55.032 73.097,60.016 73.097,60.016 C 73.703,58.504 72.043,57.75 72.043,57.75 C 72.043,57.75 70.937,59.344 70.937,59.344 C 70.937,59.344 68.718,55.946 68.718,55.946 C 69.812,53.309 73.71,44.594 77.179,45.364 z M 63.281,56.09 C 64.64,53.071 67.058,53.52 67.058,53.52 C 67.058,53.52 67.511,55.938 67.511,55.938 C 66.363,56.356 65.656,57.055 65.324,57.449 C 65.324,57.449 63.281,56.09 63.281,56.09 z M 65.546,57.598 C 65.546,57.598 65.429,57.52 65.429,57.52 C 66.441,56.84 67.441,56.75 68.035,56.782 C 68.035,56.782 72.253,63.559 72.253,63.559 C 71.769,64.008 71.062,64.469 70.503,64.805 C 70.503,64.805 65.546,57.598 65.546,57.598 z M 66.664,60.653 C 66.664,60.653 68.746,63.906 68.746,63.906 C 68.746,63.906 68.117,63.188 68.117,63.188 C 67.359,66.207 68.57,68.625 68.57,68.625 C 68.57,68.625 62.828,73.156 62.828,73.156 C 62.828,73.156 62.21,73.778 62.21,73.778 C 62.097,73.797 61.972,73.821 61.863,73.84 C 61.539,73.883 61.218,73.93 60.898,73.973 C 63.136,71.524 65.847,63.254 66.664,60.653 z M 50.14,78.594 C 50.14,78.594 51.953,75.574 70.078,74.364 C 70.078,74.364 51.957,76.477 47.121,98.227 C 47.121,98.227 46.214,100.039 46.214,100.039 C 46.214,100.039 45.007,97.621 45.007,97.621 C 45.007,97.621 55.882,78.594 50.14,78.594 z M 40.906,132.375 C 40.832,131.012 40.73,129.633 40.605,128.246 C 41.41,127.84 41.988,126.797 41.988,125.563 C 41.988,124.008 41.074,122.75 39.933,122.703 C 39.765,121.606 39.574,120.524 39.355,119.469 C 42.179,119.887 43.351,121.656 43.828,123.297 C 43.945,125.614 43.972,127.899 43.921,130.121 C 43.003,131.309 41.71,132.02 40.906,132.375 z M 43.855,132.125 C 43.847,132.332 43.836,132.528 43.828,132.731 C 43.828,132.731 43.796,132.36 43.796,132.36 C 43.796,132.36 43.855,132.125 43.855,132.125 z M 41.125,140.231 C 41.125,139.438 41.121,138.625 41.101,137.785 C 41.101,137.785 43.574,136.551 43.574,136.551 C 43.449,138.039 43.296,139.481 43.128,140.86 C 43.175,140.078 43.195,139.61 43.195,139.61 C 43.195,139.61 41.125,140.231 41.125,140.231 z M 41.105,118.449 C 40.355,118.055 39.601,117.891 39,117.836 C 38.851,117.211 38.691,116.598 38.523,115.996 C 38.523,115.996 42.562,112.91 42.562,112.91 C 42.836,114.305 43.074,115.703 43.261,117.102 C 43.261,117.102 41.105,118.449 41.105,118.449 z M 39.714,158.586 C 51.293,134 43.195,108.797 43.195,108.797 C 41.273,103.379 39.96,100.692 39.078,99.766 C 39.078,99.766 41.382,94.906 41.382,94.906 C 41.382,94.906 54.671,114.539 47.726,145.352 C 47.726,145.352 45.32,158.961 38.257,166.117 C 38.781,163.68 39.281,161.188 39.714,158.586 z M 47.043,158.906 C 47.441,159.18 47.71,159.684 47.71,160.266 C 47.71,161.137 47.101,161.848 46.355,161.848 C 45.687,161.848 45.132,161.278 45.023,160.532 C 45.218,161.043 45.613,161.395 46.074,161.395 C 46.726,161.395 47.257,160.684 47.257,159.809 C 47.257,159.473 47.179,159.16 47.043,158.906 z M 46.046,233.211 C 46.757,233.211 47.336,232.5 47.336,231.625 C 47.336,231.289 47.25,230.981 47.101,230.723 C 47.535,230.996 47.828,231.5 47.828,232.078 C 47.828,232.957 47.164,233.664 46.355,233.664 C 45.625,233.664 45.027,233.094 44.906,232.348 C 45.121,232.86 45.546,233.211 46.046,233.211 z M 38.105,240.051 C 38.449,237.422 40.734,236.485 43.289,236.282 C 48.273,236.321 52.246,238.68 54.73,240.703 C 75.625,261.391 83.285,282.211 84.644,286.293 C 84.164,286.207 83.71,286.117 83.273,286.032 C 73.109,260.793 53.714,243.93 53.714,243.93 C 43.523,234.68 39.406,239.242 38.183,241.383 C 38.156,240.879 38.128,240.41 38.105,240.051 z M 65.433,258.203 C 65.433,258.203 64.265,259 64.265,259 C 64.265,259 62.3,256.434 62.3,256.434 C 62.3,256.434 63.21,255.41 63.21,255.41 C 63.972,256.34 64.714,257.274 65.433,258.203 z M 45.234,239.571 C 45.234,239.571 45.234,241.18 45.234,241.18 C 44.781,240.801 42.214,240.727 42.214,240.727 C 42.214,240.727 41.843,239.082 41.843,239.082 C 42.91,238.949 44.078,239.16 45.234,239.571 z M 42.589,255.301 C 39.789,250.746 38.718,246.512 38.308,243.746 C 38.289,243.352 38.269,242.922 38.246,242.492 C 38.878,240.496 39.988,239.52 41.316,239.18 C 41.316,239.18 41.91,241.332 41.91,241.332 C 43.496,241.028 45.687,241.782 45.687,241.782 C 45.687,241.782 45.871,239.813 45.871,239.813 C 49.109,241.141 52.074,243.696 52.074,243.696 C 56.011,247.211 59.574,251.028 62.773,254.883 C 62.773,254.883 61.546,256.282 61.546,256.282 C 61.546,256.282 64.035,259.68 64.035,259.68 C 64.035,259.68 65.921,258.844 65.921,258.844 C 75.324,271.176 80.836,283 82.078,285.789 C 80.46,285.446 79.16,285.114 78.222,284.848 C 66.476,260.867 50.14,255.602 50.14,255.602 C 46.82,254.094 42.589,255.301 42.589,255.301 z M 60.98,284.199 C 60.98,284.199 60.347,277.633 60.347,277.633 C 61,277.496 61.675,277.309 62.375,277.051 C 62.375,277.051 62.464,273.364 62.464,273.364 C 62.464,273.364 64.753,275.028 64.753,275.028 C 64.753,275.028 65.093,278.106 65.093,278.106 C 65.312,278.223 65.535,278.324 65.757,278.41 C 64.57,278.782 62.156,280.043 60.98,284.199 z M 61.316,284.93 C 61.218,284.903 61.132,284.883 61.046,284.864 C 61.046,284.864 61.031,284.723 61.031,284.723 C 61.031,284.723 61.316,284.93 61.316,284.93 z M 62.519,270.973 C 62.519,270.973 62.574,268.707 62.574,268.707 C 62.574,268.707 64.187,269.953 64.187,269.953 C 64.187,269.953 64.476,272.535 64.476,272.535 C 64.476,272.535 62.519,270.973 62.519,270.973 z M 65.843,280.653 C 65.843,280.653 65.574,285.086 65.574,285.086 C 64.519,285.289 63.941,285.75 63.664,286.074 C 63.332,285.782 62.957,285.555 62.578,285.375 C 62.738,284.27 63.39,281.364 65.843,280.653 z M 65.398,287.469 C 67.359,288.981 70.531,287.621 70.531,287.621 C 70.531,287.621 70.394,291.332 70.394,291.332 C 69.418,291.395 68.39,291.383 67.359,291.246 C 67.359,291.246 66.414,291.262 65.031,291.168 C 65.031,291.168 64.855,290.067 64.855,290.067 C 64.855,290.067 65.398,287.469 65.398,287.469 z M 66.453,286.414 C 66.453,286.414 66.886,278.774 66.886,278.774 C 68.015,279.047 69.089,279.078 69.898,279.032 C 69.898,279.032 69.171,286.867 69.171,286.867 C 67.66,287.321 66.453,286.414 66.453,286.414 z M 66,277.203 C 66,277.203 66,270.707 66,270.707 C 66.531,270.617 67.164,270.633 67.601,270.66 C 68.949,272.352 70.16,274.047 71.238,275.656 C 71.238,275.656 71.015,277.684 71.015,277.684 C 67.914,278.524 66,277.203 66,277.203 z M 48.617,263.395 C 48.617,263.395 48.218,256.559 48.218,256.559 C 48.218,256.559 49.234,256.813 49.234,256.813 C 51.742,257.528 54.109,258.676 56.336,260.098 C 56.336,260.098 56.336,262.25 56.336,262.25 C 56.336,262.25 56.253,262.824 56.253,262.824 C 52.863,262.852 49.73,263.239 48.617,263.395 z M 50.828,264.391 C 52.929,264.367 55.886,264.282 58.261,264.203 C 58.261,264.203 59.468,272.008 59.468,272.008 C 56.98,272.477 54.039,272.434 52.828,272.391 C 52.828,272.391 50.828,264.391 50.828,264.391 z M 53.765,276.145 C 53.765,276.145 52.882,272.61 52.882,272.61 C 54.992,273.289 58.101,272.934 59.578,272.703 C 59.578,272.703 60.109,276.145 60.109,276.145 C 60.109,276.145 56.636,277.653 53.765,276.145 z M 57.156,277.914 C 57.761,277.934 58.421,277.906 59.117,277.828 C 59.117,277.828 60.21,285.731 60.21,285.731 C 59.687,286.141 58.714,286.008 58.503,285.969 C 58.503,285.969 57.156,277.914 57.156,277.914 z M 63.132,287.168 C 63.132,287.168 63.269,291 63.269,291 C 60.789,290.703 57.757,290.039 55.863,288.59 C 55.863,288.59 55.73,286.867 55.73,286.867 C 59.355,288.375 63.132,287.168 63.132,287.168 z M 54.07,288.981 C 54.07,288.981 55.429,291.703 67.359,292.606 C 67.359,292.606 70.46,292.918 74.007,292.172 C 74.007,292.172 74.007,296.883 74.007,296.883 C 71.996,297.297 69.636,297.66 67.664,297.59 C 67.664,297.59 57.695,297.438 53.765,293.211 C 53.765,293.211 54.07,288.981 54.07,288.981 z M 66.304,316.996 C 50.898,309.973 39.117,306.352 39.117,306.352 C 39.117,306.352 52.914,294.278 52.914,294.278 C 54.023,295.18 57.941,297.813 66.554,298.656 C 67.183,304.219 66.304,316.996 66.304,316.996 z M 93.488,302.953 C 90.543,305.215 67.89,317.676 67.89,317.676 C 67.89,317.676 67.218,298.711 67.218,298.711 C 67.57,298.739 67.902,298.774 68.265,298.797 C 68.265,298.797 75.929,298.227 78.812,296.785 C 78.812,296.785 93.488,302.953 93.488,302.953 z M 79.437,292.043 C 79.437,292.043 79.355,290.989 79.355,290.989 C 79.359,290.934 79.359,290.879 79.359,290.828 C 79.402,290.719 79.41,290.571 79.343,290.391 C 79.277,289.672 79.011,289.543 78.718,289.649 C 78.277,289.301 77.57,288.906 76.453,288.469 C 76.57,287.977 76.668,287.309 76.656,286.446 C 82.242,288.078 88,288.926 93.496,289.282 C 86.812,290.098 81.48,291.469 79.437,292.043 z M 85.914,286.508 C 77.628,261.114 57.632,241.387 53.808,237.774 C 55.511,160.422 89.41,138.703 89.41,138.703 C 89.41,138.703 88.578,138.371 88.578,138.371 C 94.328,139.965 107.632,143.356 115.464,143.008 C 115.464,143.008 115.703,142.867 116.117,142.621 C 117.203,147.899 120.21,167.156 118.71,213.617 C 118.71,213.617 118.121,270.52 110.824,287.324 C 100.472,288.215 91.906,287.485 85.914,286.508 z M 117.621,141.727 C 121.836,139.227 130.804,133.946 131.324,133.946 C 147.148,160.266 146.125,209.571 144.714,231.782 C 141.281,259.367 124.25,281.41 120.402,286.086 C 117.906,286.52 115.496,286.848 113.16,287.098 C 114.675,277.875 124.66,212.895 117.621,141.727 z M 162.878,304.02 C 145.574,303.434 130.312,305.735 127.168,306.25 C 124.976,303.922 118.41,297.969 118.41,297.969 C 117.957,295.93 138.117,289.133 138.117,289.133 C 141.718,290.934 158.882,301.543 162.878,304.02 z " />
    </g>
    <g
       id="g2900"
       style="fill:#11137e;fill-rule:evenodd;stroke:none;stroke-width:1pt;stroke-linecap:butt;stroke-linejoin:miter;stroke-dasharray:none"
       transform="matrix(1.290432,0,0,1.290432,376.9749,350.2792)">
      <path
         id="path2902"
         d="M 0,0 C 0.043,0.055 0.09,0.117 0.133,0.176 C 0.09,0.113 0.043,0.059 0,0 z " />
    </g>
    <g
       id="g2904"
       style="fill:#11137e;fill-rule:evenodd;stroke:none;stroke-width:1pt;stroke-linecap:butt;stroke-linejoin:miter;stroke-dasharray:none"
       transform="matrix(1.290432,0,0,1.290432,362.8653,349.5991)">
      <path
         id="path2906"
         d="M 0,0 C 0,0 0.004,0 0.004,0.004 C 0.004,0 0,0 0,0 z " />
    </g>
    <g
       id="g2908"
       style="fill:#11137e;fill-rule:evenodd;stroke:none;stroke-width:1pt;stroke-linecap:butt;stroke-linejoin:miter;stroke-dasharray:none"
       transform="matrix(1.290432,0,0,1.290432,359.9618,356.0667)">
      <path
         id="path2910"
         d="M 0.172,0.019 C 0.184,0.019 0.192,0.015 0.204,0.015 C 0.137,0.015 0.067,0.007 0,0 C 0.059,0.003 0.114,0.019 0.172,0.019 z " />
    </g>
  </g>
</svg>
